{"glyphs":{"0":{"ha":378,"x_min":0,"x_max":364,"o":"m 364 182 q 349 112 364 144 q 310 54 335 79 q 252 15 285 29 q 182 0 219 0 q 112 15 144 0 q 54 54 79 29 q 15 112 29 79 q 0 182 0 144 l 0 790 q 15 860 0 828 q 54 918 29 893 q 112 958 79 943 q 182 972 144 972 q 252 958 219 972 q 310 918 285 943 q 349 860 335 893 q 364 790 364 828 l 364 182 m 200 822 q 183 838 194 838 q 164 822 169 838 l 163 150 q 181 135 168 135 q 199 150 193 135 l 200 822 z "},"1":{"ha":285,"x_min":3,"x_max":264,"o":"m 3 917 l 213 972 l 213 150 l 264 150 l 264 0 l 3 0 l 3 150 l 53 150 l 53 751 l 3 739 l 3 917 z "},"2":{"ha":376,"x_min":0,"x_max":364,"o":"m 0 150 l 199 560 l 200 822 q 183 838 194 838 q 164 822 169 838 l 163 560 l 0 560 l 0 790 q 15 860 0 828 q 54 918 29 893 q 112 958 79 943 q 182 972 144 972 q 252 958 219 972 q 310 918 285 943 q 349 860 335 893 q 364 790 364 828 l 364 560 q 354 519 364 539 l 161 150 l 364 150 l 364 0 l 0 0 l 0 150 z "},"3":{"ha":376,"x_min":0,"x_max":364,"o":"m 43 563 l 199 563 l 200 822 q 183 838 194 838 q 164 822 169 838 l 164 626 l 0 626 l 0 790 q 15 860 0 828 q 54 918 29 893 q 112 958 79 943 q 182 972 144 972 q 252 958 219 972 q 310 918 285 943 q 349 860 335 893 q 364 790 364 828 l 364 465 q 340 424 364 438 q 364 382 364 410 l 364 182 q 349 112 364 144 q 310 54 335 79 q 252 15 285 29 q 182 0 219 0 q 112 15 144 0 q 54 54 79 29 q 15 112 29 79 q 0 182 0 144 l 0 351 l 163 351 l 163 150 q 181 135 168 135 q 199 150 193 135 l 199 413 l 43 413 l 43 563 z "},"4":{"ha":392,"x_min":0,"x_max":368,"o":"m 0 972 l 160 972 l 160 567 l 208 567 l 208 972 l 368 972 l 368 0 l 208 0 l 208 417 l 0 417 l 0 972 z "},"5":{"ha":379,"x_min":0,"x_max":364,"o":"m 0 972 l 364 972 l 364 822 l 160 822 l 160 563 l 329 563 q 356 548 349 563 q 364 521 364 533 l 364 182 q 349 112 364 144 q 310 54 335 79 q 252 15 285 29 q 182 0 219 0 q 112 15 144 0 q 54 54 79 29 q 15 112 29 79 q 0 182 0 144 l 0 351 l 163 351 l 163 150 q 181 135 168 135 q 199 150 193 135 l 199 413 l 0 413 l 0 972 z "},"6":{"ha":378,"x_min":0,"x_max":364,"o":"m 364 657 l 199 657 l 200 822 q 183 838 194 838 q 164 822 169 838 l 163 579 q 172 580 168 579 q 182 581 176 581 q 252 566 219 581 q 310 526 285 551 q 349 469 335 501 q 364 399 364 436 l 364 182 q 349 112 364 144 q 310 54 335 79 q 252 15 285 29 q 182 0 219 0 q 112 15 144 0 q 54 54 79 29 q 15 112 29 79 q 0 182 0 144 l 0 399 l 0 406 l 0 790 q 15 860 0 828 q 54 918 29 893 q 112 958 79 943 q 182 972 144 972 q 252 958 219 972 q 310 918 285 943 q 349 860 335 893 q 364 790 364 828 l 364 657 m 200 431 q 183 446 194 446 q 164 431 169 446 l 163 150 q 181 135 168 135 q 199 150 193 135 l 200 431 z "},"7":{"ha":313,"x_min":0,"x_max":313,"o":"m 0 972 l 313 972 l 201 0 l 42 0 l 135 822 l 0 822 l 0 972 z "},"8":{"ha":386,"x_min":0,"x_max":364,"o":"m 364 676 q 328 565 363 608 q 354 517 344 544 q 364 456 364 489 l 364 182 q 349 112 364 144 q 310 54 335 79 q 252 15 285 29 q 182 0 219 0 q 112 15 144 0 q 54 54 79 29 q 15 112 29 79 q 0 182 0 144 l 0 456 q 35 567 0 524 q 10 615 19 588 q 0 676 0 643 l 0 790 q 15 860 0 828 q 54 918 29 893 q 112 958 79 943 q 182 972 144 972 q 252 958 219 972 q 310 918 285 943 q 349 860 335 893 q 364 790 364 828 l 364 676 m 200 488 l 200 497 l 164 497 l 164 488 l 163 150 q 181 135 168 135 q 199 150 193 135 l 200 488 m 200 822 q 183 838 194 838 q 164 822 169 838 l 163 644 l 163 635 l 199 635 l 200 822 z "},"9":{"ha":378,"x_min":0,"x_max":364,"o":"m 0 315 l 165 315 l 164 150 q 181 135 169 135 q 200 150 194 135 l 200 393 q 191 392 196 392 q 182 392 186 392 q 112 406 144 392 q 54 446 79 421 q 15 503 29 471 q 0 574 0 536 l 0 790 q 15 860 0 828 q 54 918 29 893 q 112 958 79 943 q 182 972 144 972 q 252 958 219 972 q 310 918 285 943 q 349 860 335 893 q 364 790 364 828 l 364 182 q 349 112 364 144 q 310 54 335 79 q 252 15 285 29 q 182 0 219 0 q 112 15 144 0 q 54 54 79 29 q 15 112 29 79 q 0 182 0 144 l 0 315 m 164 542 q 181 526 169 526 q 200 542 194 526 l 201 822 q 183 838 196 838 q 165 822 171 838 l 164 542 z "}," ":{"ha":199,"x_min":0,"x_max":0,"o":""},"P":{"ha":383,"x_min":0,"x_max":364,"o":"m 0 972 l 311 972 l 315 972 q 349 958 335 972 q 364 924 364 943 l 364 919 l 364 469 l 364 465 q 349 431 364 446 q 315 417 335 417 l 311 417 l 160 417 l 160 0 l 0 0 l 0 972 m 160 567 l 204 567 l 204 822 l 160 822 l 160 567 z "},"E":{"ha":321,"x_min":0,"x_max":294,"o":"m 0 972 l 294 972 l 294 822 l 160 822 l 160 567 l 294 567 l 294 417 l 160 417 l 160 150 l 294 150 l 294 0 l 0 0 l 0 972 z "},"L":{"ha":315,"x_min":0,"x_max":294,"o":"m 0 972 l 160 972 l 160 150 l 294 150 l 294 0 l 0 0 l 0 972 z "},"F":{"ha":315,"x_min":0,"x_max":294,"o":"m 0 972 l 294 972 l 294 822 l 160 822 l 160 567 l 294 567 l 294 417 l 160 417 l 160 0 l 0 0 l 0 972 z "},"R":{"ha":381,"x_min":0,"x_max":364,"o":"m 204 417 l 160 417 l 160 0 l 0 0 l 0 972 l 315 972 q 349 958 335 972 q 364 924 364 943 l 364 469 l 364 465 q 340 424 364 438 q 364 382 364 410 l 364 378 l 364 0 l 204 0 l 204 417 m 160 567 l 204 567 l 204 822 l 160 822 l 160 567 m 281 417 l 281 415 l 282 417 l 281 417 z "},"H":{"ha":401,"x_min":0,"x_max":368,"o":"m 208 417 l 160 417 l 160 0 l 0 0 l 0 972 l 160 972 l 160 567 l 208 567 l 208 972 l 368 972 l 368 0 l 208 0 l 208 417 z "},"K":{"ha":393,"x_min":0,"x_max":364,"o":"m 0 972 l 160 972 l 160 567 l 204 567 l 204 972 l 364 972 l 364 469 l 364 465 q 340 424 364 438 q 364 382 364 410 l 364 378 l 364 0 l 204 0 l 204 417 l 160 417 l 160 0 l 0 0 l 0 972 m 281 417 l 281 415 l 282 417 l 281 417 z "},"A":{"ha":425,"x_min":0,"x_max":424,"o":"m 254 72 l 169 72 l 160 0 l 0 0 l 131 972 l 293 972 l 424 0 l 264 0 l 254 72 m 211 592 l 189 222 l 233 222 l 211 592 z "},"C":{"ha":386,"x_min":0,"x_max":364,"o":"m 0 924 q 15 958 0 943 q 49 972 29 972 l 53 972 l 315 972 q 349 958 335 972 q 364 924 364 943 l 364 919 l 364 553 l 204 553 l 204 822 l 160 822 l 160 150 l 204 150 l 204 204 l 364 204 l 364 49 q 349 15 364 29 q 315 0 335 0 l 49 0 q 15 15 29 0 q 0 49 0 29 l 0 924 z "},"G":{"ha":393,"x_min":0,"x_max":364,"o":"m 0 924 q 15 958 0 943 q 49 972 29 972 l 315 972 q 349 958 335 972 q 364 924 364 943 l 364 919 l 364 757 l 204 757 l 204 822 l 160 822 l 160 150 l 204 150 l 204 576 l 364 576 l 364 0 l 53 0 l 49 0 q 15 15 29 0 q 0 49 0 29 l 0 924 z "},"S":{"ha":382,"x_min":0,"x_max":364,"o":"m 0 322 l 160 322 l 160 150 l 204 150 l 204 417 l 49 417 q 15 431 29 417 q 0 465 0 446 l 0 924 q 15 958 0 943 q 49 972 29 972 l 53 972 l 311 972 l 315 972 q 349 958 335 972 q 364 924 364 943 l 364 649 l 204 649 l 204 822 l 160 822 l 160 567 l 311 567 l 315 567 q 349 552 335 567 q 364 518 364 538 l 364 53 l 364 49 q 349 15 364 29 q 315 0 335 0 l 53 0 l 49 0 q 15 15 29 0 q 0 49 0 29 l 0 322 z "},"T":{"ha":421,"x_min":0,"x_max":400,"o":"m 0 972 l 400 972 l 400 822 l 285 822 l 285 0 l 125 0 l 125 822 l 0 822 l 0 972 z "},"B":{"ha":383,"x_min":0,"x_max":364,"o":"m 0 972 l 311 972 l 315 972 q 349 958 335 972 q 364 924 364 943 l 364 919 l 364 465 q 340 424 364 438 q 364 382 364 410 l 364 378 l 364 49 q 349 15 364 29 q 315 0 335 0 l 311 0 l 0 0 l 0 972 m 160 150 l 204 150 l 204 417 l 160 417 l 160 150 m 160 567 l 204 567 l 204 822 l 160 822 l 160 567 m 281 417 l 281 415 l 282 417 l 281 417 z "},"D":{"ha":382,"x_min":0,"x_max":364,"o":"m 0 972 l 311 972 l 315 972 q 349 958 335 972 q 364 924 364 943 l 364 919 l 364 53 l 364 49 q 349 15 364 29 q 315 0 335 0 l 0 0 l 0 972 m 160 150 l 204 150 l 204 822 l 160 822 l 160 150 z "},"I":{"ha":257,"x_min":3,"x_max":236,"o":"m 3 972 l 236 972 l 236 822 l 201 822 l 201 150 l 236 150 l 236 0 l 3 0 l 3 150 l 42 150 l 42 822 l 3 822 l 3 972 z "},"O":{"ha":379,"x_min":0,"x_max":364,"o":"m 315 972 q 349 958 335 972 q 364 924 364 943 l 364 53 l 364 49 q 349 15 364 29 q 315 0 335 0 l 53 0 l 49 0 q 15 15 29 0 q 0 49 0 29 l 0 53 l 0 924 q 15 958 0 943 q 49 972 29 972 l 311 972 l 315 972 m 160 150 l 204 150 l 204 822 l 160 822 l 160 150 z "},"M":{"ha":479,"x_min":0,"x_max":465,"o":"m 140 476 l 160 51 l 160 0 l 0 0 l 0 972 l 213 972 l 229 711 l 243 972 l 465 972 l 465 0 l 306 0 l 306 51 l 325 475 l 282 0 l 185 0 l 140 476 z "},"V":{"ha":425,"x_min":-1,"x_max":422,"o":"m 210 374 l 263 972 l 422 972 l 292 0 l 129 0 l -1 972 l 158 972 l 210 374 z "},"W":{"ha":629,"x_min":-1,"x_max":631,"o":"m 418 374 l 471 972 l 631 972 l 500 0 l 338 0 l 314 217 l 292 0 l 129 0 l -1 972 l 158 972 l 210 374 l 235 972 l 394 972 l 418 374 z "},"U":{"ha":382,"x_min":0,"x_max":364,"o":"m 160 150 l 204 150 l 204 972 l 364 972 l 364 49 q 349 15 364 29 q 315 0 335 0 l 311 0 l 49 0 q 15 15 29 0 q 0 49 0 29 l 0 972 l 160 972 l 160 150 z "},"Q":{"ha":381,"x_min":0,"x_max":364,"o":"m 315 972 q 349 958 335 972 q 364 924 364 943 l 364 919 l 364 -62 l 204 -62 l 204 0 l 49 0 q 15 15 29 0 q 0 49 0 29 l 0 924 q 15 958 0 943 q 49 972 29 972 l 315 972 m 160 150 l 204 150 l 204 822 l 160 822 l 160 150 z "},"J":{"ha":379,"x_min":0,"x_max":364,"o":"m 364 49 q 349 15 364 29 q 315 0 335 0 l 53 0 l 49 0 q 15 15 29 0 q 0 49 0 29 l 0 354 l 160 354 l 160 150 l 204 150 l 204 822 l 0 822 l 0 972 l 364 972 l 364 49 z "},"X":{"ha":368,"x_min":-1,"x_max":367,"o":"m 182 286 l 158 0 l -1 0 l 99 499 l -1 972 l 158 972 l 182 732 l 207 972 l 367 972 l 264 489 l 263 489 l 365 0 l 206 0 l 182 286 z "},"N":{"ha":383,"x_min":0,"x_max":368,"o":"m 0 972 l 103 972 l 208 485 l 208 972 l 368 972 l 368 0 l 239 0 l 160 365 l 160 0 l 0 0 l 0 972 z "},"Y":{"ha":357,"x_min":3,"x_max":357,"o":"m 100 515 l 3 972 l 163 972 l 186 732 l 211 972 l 357 972 l 260 515 l 260 0 l 100 0 l 100 515 z "},"Z":{"ha":315,"x_min":0,"x_max":313,"o":"m 0 972 l 313 972 l 183 150 l 294 150 l 294 0 l 0 0 l 129 822 l 0 822 l 0 972 z "},"$":{"ha":382,"x_min":0,"x_max":364,"o":"m 0 322 l 160 322 l 160 150 l 204 150 l 204 417 l 49 417 q 15 431 29 417 q 0 465 0 446 l 0 924 q 15 958 0 943 q 49 972 29 972 l 101 972 l 101 1043 l 261 1043 l 261 972 l 315 972 q 349 958 335 972 q 364 924 364 943 l 364 649 l 204 649 l 204 822 l 160 822 l 160 567 l 315 567 q 349 552 335 567 q 364 518 364 538 l 364 49 q 349 15 364 29 q 315 0 335 0 l 261 0 l 261 -64 l 101 -64 l 101 0 l 49 0 q 15 15 29 0 q 0 49 0 29 l 0 322 z "},"a":{"ha":383,"x_min":0,"x_max":364,"o":"m 315 833 q 349 819 335 833 q 364 785 364 804 l 364 781 l 364 0 l 49 0 q 15 15 29 0 q 0 49 0 29 l 0 549 q 15 583 0 568 q 49 597 29 597 l 204 597 l 204 683 l 0 683 l 0 833 l 315 833 m 160 150 l 204 150 l 204 447 l 160 447 l 160 150 z "},"o":{"ha":386,"x_min":0,"x_max":364,"o":"m 315 833 q 349 819 335 833 q 364 785 364 804 l 364 53 l 364 49 q 349 15 364 29 q 315 0 335 0 l 53 0 l 49 0 q 15 15 29 0 q 0 49 0 29 l 0 53 l 0 785 q 15 819 0 804 q 49 833 29 833 l 311 833 l 315 833 m 160 150 l 204 150 l 204 683 l 160 683 l 160 150 z "},"b":{"ha":388,"x_min":0,"x_max":364,"o":"m 160 833 l 311 833 l 315 833 q 349 819 335 833 q 364 785 364 804 l 364 781 l 364 49 q 349 15 364 29 q 315 0 335 0 l 311 0 l 0 0 l 0 972 l 160 972 l 160 833 m 160 150 l 204 150 l 204 683 l 160 683 l 160 150 z "},"c":{"ha":388,"x_min":0,"x_max":364,"o":"m 160 150 l 204 150 l 204 274 l 364 274 l 364 49 q 349 15 364 29 q 315 0 335 0 l 49 0 q 15 15 29 0 q 0 49 0 29 l 0 785 q 15 819 0 804 q 49 833 29 833 l 315 833 q 349 819 335 833 q 364 785 364 804 l 364 378 l 204 378 l 204 683 l 160 683 l 160 150 z "},"d":{"ha":388,"x_min":0,"x_max":364,"o":"m 49 833 l 204 833 l 204 972 l 364 972 l 364 0 l 49 0 q 15 15 29 0 q 0 49 0 29 l 0 785 q 15 819 0 804 q 49 833 29 833 m 160 150 l 204 150 l 204 683 l 160 683 l 160 150 z "},"e":{"ha":383,"x_min":0,"x_max":364,"o":"m 160 378 l 160 150 l 204 150 l 204 274 l 364 274 l 364 49 q 349 15 364 29 q 315 0 335 0 l 49 0 q 15 15 29 0 q 0 49 0 29 l 0 785 q 15 819 0 804 q 49 833 29 833 l 315 833 q 349 819 335 833 q 364 785 364 804 l 364 378 l 160 378 m 160 526 l 204 526 l 204 683 l 160 683 l 160 526 z "},"f":{"ha":388,"x_min":0,"x_max":364,"o":"m 315 972 q 349 958 335 972 q 364 924 364 943 l 364 919 l 364 715 l 204 715 l 204 822 l 160 822 l 160 667 l 364 667 l 364 517 l 160 517 l 160 0 l 0 0 l 0 924 q 15 958 0 943 q 49 972 29 972 l 315 972 l 315 972 z "},"g":{"ha":388,"x_min":0,"x_max":364,"o":"m 364 -160 q 349 -194 364 -179 q 315 -208 335 -208 l 0 -208 l 0 -58 l 204 -58 l 204 0 l 49 0 q 15 15 29 0 q 0 49 0 29 l 0 785 q 15 819 0 804 q 49 833 29 833 l 364 833 l 364 -160 m 160 150 l 204 150 l 204 683 l 160 683 l 160 150 z "},"q":{"ha":389,"x_min":0,"x_max":364,"o":"m 204 0 l 53 0 l 49 0 q 15 15 29 0 q 0 49 0 29 l 0 785 q 15 819 0 804 q 49 833 29 833 l 364 833 l 364 49 l 364 44 l 364 -208 l 204 -208 l 204 0 m 204 683 l 160 683 l 160 150 l 204 150 l 204 683 z "},"p":{"ha":383,"x_min":0,"x_max":364,"o":"m 0 833 l 311 833 l 315 833 q 349 819 335 833 q 364 785 364 804 l 364 53 l 364 49 q 349 15 364 29 q 315 0 335 0 l 160 0 l 160 -208 l 0 -208 l 0 833 m 160 150 l 204 150 l 204 683 l 160 683 l 160 150 z "},"h":{"ha":392,"x_min":0,"x_max":364,"o":"m 315 833 q 349 819 335 833 q 364 785 364 804 l 364 781 l 364 0 l 204 0 l 204 683 l 160 683 l 160 0 l 0 0 l 0 972 l 160 972 l 160 833 l 315 833 l 315 833 z "},"i":{"ha":189,"x_min":7,"x_max":167,"o":"m 167 0 l 7 0 l 7 801 l 167 801 l 167 0 m 167 819 l 7 819 l 7 972 l 167 972 l 167 819 z "},"r":{"ha":388,"x_min":0,"x_max":364,"o":"m 204 683 l 160 683 l 160 0 l 0 0 l 0 833 l 311 833 l 315 833 q 349 819 335 833 q 364 785 364 804 l 364 781 l 364 514 l 204 514 l 204 683 z "},"s":{"ha":392,"x_min":0,"x_max":364,"o":"m 0 281 l 160 281 l 160 150 l 204 150 l 204 347 l 49 347 q 15 362 29 347 q 0 396 0 376 l 0 785 q 15 819 0 804 q 49 833 29 833 l 53 833 l 311 833 l 315 833 q 349 819 335 833 q 364 785 364 804 l 364 551 l 204 551 l 204 683 l 160 683 l 160 497 l 311 497 l 315 497 q 349 483 335 497 q 364 449 364 468 l 364 53 l 364 49 q 349 15 364 29 q 315 0 335 0 l 53 0 l 49 0 q 15 15 29 0 q 0 49 0 29 l 0 281 z "},"n":{"ha":383,"x_min":0,"x_max":364,"o":"m 204 683 l 160 683 l 160 0 l 0 0 l 0 833 l 311 833 l 315 833 q 349 819 335 833 q 364 785 364 804 l 364 781 l 364 0 l 204 0 l 204 683 z "},"m":{"ha":585,"x_min":0,"x_max":568,"o":"m 408 679 l 364 678 l 364 0 l 204 0 l 204 683 l 160 683 l 160 0 l 0 0 l 0 833 l 315 833 q 344 823 332 833 q 361 797 357 813 q 378 823 365 813 q 408 833 392 833 l 519 833 q 553 819 539 833 q 568 785 568 804 l 568 0 l 408 0 l 408 679 z "},"k":{"ha":386,"x_min":0,"x_max":364,"o":"m 160 621 l 204 621 l 204 833 l 364 833 l 364 528 q 340 489 363 503 q 364 447 364 475 l 364 443 l 364 0 l 204 0 l 204 471 l 160 471 l 160 0 l 0 0 l 0 972 l 160 972 l 160 621 z "},"l":{"ha":190,"x_min":7,"x_max":167,"o":"m 167 0 l 7 0 l 7 972 l 167 972 l 167 0 z "},"t":{"ha":383,"x_min":0,"x_max":364,"o":"m 364 683 l 160 683 l 160 150 l 204 150 l 204 354 l 364 354 l 364 53 l 364 49 q 349 15 364 29 q 315 0 335 0 l 311 0 l 49 0 q 15 15 29 0 q 0 49 0 29 l 0 972 l 160 972 l 160 833 l 364 833 l 364 683 z "},"u":{"ha":382,"x_min":0,"x_max":364,"o":"m 160 150 l 204 150 l 204 833 l 364 833 l 364 49 q 349 15 364 29 q 315 0 335 0 l 311 0 l 49 0 q 15 15 29 0 q 0 49 0 29 l 0 833 l 160 833 l 160 150 z "},"x":{"ha":353,"x_min":-1,"x_max":349,"o":"m 174 246 l 150 0 l -1 0 l 93 428 l -1 833 l 150 833 l 174 629 l 197 833 l 349 833 l 251 419 l 250 419 l 347 0 l 196 0 l 174 246 z "},"v":{"ha":419,"x_min":-1,"x_max":418,"o":"m 208 319 l 260 833 l 418 833 l 289 0 l 128 0 l -1 833 l 157 833 l 208 319 z "},"w":{"ha":596,"x_min":-1,"x_max":596,"o":"m 400 319 l 438 833 l 596 833 l 467 0 l 333 0 l 297 296 l 261 0 l 128 0 l -1 833 l 157 833 l 194 319 l 232 833 l 363 833 l 400 319 z "},"j":{"ha":186,"x_min":-194,"x_max":169,"o":"m 169 -160 q 155 -194 169 -179 q 121 -208 140 -208 l -194 -208 l -194 -58 l 10 -58 l 10 800 l 169 800 l 169 -160 m 169 819 l 10 819 l 10 972 l 169 972 l 169 819 z "},"z":{"ha":311,"x_min":0,"x_max":313,"o":"m 0 833 l 313 833 l 188 150 l 294 150 l 294 0 l 0 0 l 125 683 l 0 683 l 0 833 z "},"y":{"ha":415,"x_min":-1,"x_max":418,"o":"m 144 -82 l -1 833 l 157 833 l 208 319 l 260 833 l 418 833 l 261 -208 l 128 -208 l 144 -82 z "},"˚":{"ha":158,"x_min":0,"x_max":147,"o":"m 128 1014 q 141 1008 135 1014 q 147 994 147 1001 l 147 893 q 141 878 147 885 q 128 872 135 872 l 22 872 l 19 872 q 6 878 11 872 q 0 893 0 885 l 0 896 l 0 994 q 6 1008 0 1001 q 19 1014 11 1014 l 22 1014 l 125 1014 l 128 1014 m 64 933 l 82 933 l 82 953 l 64 953 l 64 933 z "},"Å":{"ha":425,"x_min":0,"x_max":424,"o":"m 254 72 l 169 72 l 160 0 l 0 0 l 131 972 l 293 972 l 424 0 l 264 0 l 254 72 m 211 592 l 189 222 l 233 222 l 211 592 m 267 1153 q 280 1147 274 1153 q 286 1133 286 1140 l 286 1032 q 280 1017 286 1024 q 267 1011 274 1011 l 161 1011 l 158 1011 q 144 1017 150 1011 q 139 1032 139 1024 l 139 1035 l 139 1133 q 144 1147 139 1140 q 158 1153 150 1153 l 161 1153 l 264 1153 l 267 1153 m 203 1072 l 221 1072 l 221 1092 l 203 1092 l 203 1072 z "},"å":{"ha":383,"x_min":0,"x_max":364,"o":"m 315 833 q 349 819 335 833 q 364 785 364 804 l 364 781 l 364 0 l 49 0 q 15 15 29 0 q 0 49 0 29 l 0 549 q 15 583 0 568 q 49 597 29 597 l 204 597 l 204 683 l 0 683 l 0 833 l 315 833 m 160 150 l 204 150 l 204 447 l 160 447 l 160 150 m 246 1014 q 259 1008 253 1014 q 265 994 265 1001 l 265 893 q 259 878 265 885 q 246 872 253 872 l 140 872 l 138 872 q 124 878 129 872 q 118 893 118 885 l 118 896 l 118 994 q 124 1008 118 1001 q 138 1014 129 1014 l 140 1014 l 243 1014 l 246 1014 m 182 933 l 200 933 l 200 953 l 182 953 l 182 933 z "},"˙":{"ha":171,"x_min":6,"x_max":151,"o":"m 6 1011 l 151 1011 l 151 861 l 6 861 l 6 1011 z "},".":{"ha":183,"x_min":6,"x_max":151,"o":"m 6 150 l 151 150 l 151 0 l 6 0 l 6 150 z "},"¨":{"ha":283,"x_min":6,"x_max":258,"o":"m 6 978 l 118 978 l 118 861 l 6 861 l 6 978 m 146 978 l 258 978 l 258 861 l 146 861 l 146 978 z "},"Ä":{"ha":425,"x_min":0,"x_max":424,"o":"m 254 72 l 169 72 l 160 0 l 0 0 l 131 972 l 293 972 l 424 0 l 264 0 l 254 72 m 211 592 l 189 222 l 233 222 l 211 592 m 86 1117 l 199 1117 l 199 1000 l 86 1000 l 86 1117 m 226 1117 l 339 1117 l 339 1000 l 226 1000 l 226 1117 z "},"ä":{"ha":383,"x_min":0,"x_max":364,"o":"m 315 833 q 349 819 335 833 q 364 785 364 804 l 364 781 l 364 0 l 49 0 q 15 15 29 0 q 0 49 0 29 l 0 549 q 15 583 0 568 q 49 597 29 597 l 204 597 l 204 683 l 0 683 l 0 833 l 315 833 m 160 150 l 204 150 l 204 447 l 160 447 l 160 150 m 65 978 l 178 978 l 178 861 l 65 861 l 65 978 m 206 978 l 318 978 l 318 861 l 206 861 l 206 978 z "},"ö":{"ha":386,"x_min":0,"x_max":364,"o":"m 315 833 q 349 819 335 833 q 364 785 364 804 l 364 53 l 364 49 q 349 15 364 29 q 315 0 335 0 l 53 0 l 49 0 q 15 15 29 0 q 0 49 0 29 l 0 53 l 0 785 q 15 819 0 804 q 49 833 29 833 l 311 833 l 315 833 m 160 150 l 204 150 l 204 683 l 160 683 l 160 150 m 67 978 l 179 978 l 179 861 l 67 861 l 67 978 m 207 978 l 319 978 l 319 861 l 207 861 l 207 978 z "},"Ö":{"ha":379,"x_min":0,"x_max":364,"o":"m 315 972 q 349 958 335 972 q 364 924 364 943 l 364 53 l 364 49 q 349 15 364 29 q 315 0 335 0 l 53 0 l 49 0 q 15 15 29 0 q 0 49 0 29 l 0 53 l 0 924 q 15 958 0 943 q 49 972 29 972 l 311 972 l 315 972 m 160 150 l 204 150 l 204 822 l 160 822 l 160 150 m 63 1117 l 175 1117 l 175 1000 l 63 1000 l 63 1117 m 203 1117 l 315 1117 l 315 1000 l 203 1000 l 203 1117 z "},"Ë":{"ha":321,"x_min":0,"x_max":294,"o":"m 0 972 l 294 972 l 294 822 l 160 822 l 160 567 l 294 567 l 294 417 l 160 417 l 160 150 l 294 150 l 294 0 l 0 0 l 0 972 m 33 1117 l 146 1117 l 146 1000 l 33 1000 l 33 1117 m 174 1117 l 286 1117 l 286 1000 l 174 1000 l 174 1117 z "},"ë":{"ha":383,"x_min":0,"x_max":364,"o":"m 160 378 l 160 150 l 204 150 l 204 274 l 364 274 l 364 49 q 349 15 364 29 q 315 0 335 0 l 49 0 q 15 15 29 0 q 0 49 0 29 l 0 785 q 15 819 0 804 q 49 833 29 833 l 315 833 q 349 819 335 833 q 364 785 364 804 l 364 378 l 160 378 m 160 526 l 204 526 l 204 683 l 160 683 l 160 526 m 65 978 l 178 978 l 178 861 l 65 861 l 65 978 m 206 978 l 318 978 l 318 861 l 206 861 l 206 978 z "},"˜":{"ha":294,"x_min":0,"x_max":274,"o":"m 97 872 l 97 940 l 76 940 l 76 869 l 0 869 l 0 990 q 6 1007 0 1000 q 24 1014 13 1014 l 149 1014 l 153 1014 q 169 1007 161 1014 q 176 990 176 1000 l 176 918 l 196 918 l 196 990 l 274 990 l 274 869 q 267 852 274 860 q 250 844 260 844 l 121 844 q 104 852 111 844 q 97 869 97 860 l 97 872 z "},"~":{"ha":292,"x_min":0,"x_max":274,"o":"m 97 314 q 101 326 97 319 q 97 385 99 347 l 76 385 l 76 314 l 0 314 l 0 435 q 6 451 0 444 q 24 458 13 458 l 149 458 l 153 458 q 169 451 161 458 q 176 435 176 444 l 176 432 l 176 363 l 196 363 l 196 435 l 274 435 l 274 314 q 267 297 274 304 q 250 289 260 289 l 124 289 l 121 289 q 110 293 115 289 q 103 314 106 297 l 97 314 l 97 314 z "},"Ã":{"ha":425,"x_min":0,"x_max":424,"o":"m 254 72 l 169 72 l 160 0 l 0 0 l 131 972 l 293 972 l 424 0 l 264 0 l 254 72 m 211 592 l 189 222 l 233 222 l 211 592 m 172 1011 l 172 1079 l 151 1079 l 151 1008 l 75 1008 l 75 1129 q 81 1146 75 1139 q 99 1153 88 1153 l 224 1153 l 228 1153 q 244 1146 236 1153 q 251 1129 251 1139 l 251 1057 l 271 1057 l 271 1129 l 349 1129 l 349 1008 q 342 991 349 999 q 325 983 335 983 l 196 983 q 179 991 186 983 q 172 1008 172 999 l 172 1011 z "},"ã":{"ha":383,"x_min":0,"x_max":364,"o":"m 315 833 q 349 819 335 833 q 364 785 364 804 l 364 781 l 364 0 l 49 0 q 15 15 29 0 q 0 49 0 29 l 0 549 q 15 583 0 568 q 49 597 29 597 l 204 597 l 204 683 l 0 683 l 0 833 l 315 833 m 160 150 l 204 150 l 204 447 l 160 447 l 160 150 m 151 872 l 151 940 l 131 940 l 131 869 l 54 869 l 54 990 q 60 1007 54 1000 q 78 1014 67 1014 l 203 1014 l 207 1014 q 223 1007 215 1014 q 231 990 231 1000 l 231 918 l 250 918 l 250 990 l 328 990 l 328 869 q 321 852 328 860 q 304 844 314 844 l 175 844 q 158 852 165 844 q 151 869 151 860 l 151 872 z "},"ˆ":{"ha":354,"x_min":-1,"x_max":336,"o":"m 167 926 l 126 861 l -1 861 l 103 1013 l 232 1013 l 336 861 l 208 861 l 167 926 z "},"Â":{"ha":425,"x_min":0,"x_max":424,"o":"m 254 72 l 169 72 l 160 0 l 0 0 l 131 972 l 293 972 l 424 0 l 264 0 l 254 72 m 211 592 l 189 222 l 233 222 l 211 592 m 211 1065 l 171 1000 l 43 1000 l 147 1151 l 276 1151 l 381 1000 l 253 1000 l 211 1065 z "},"ˇ":{"ha":354,"x_min":-17,"x_max":321,"o":"m 153 946 l 193 1011 l 321 1011 l 217 860 l 88 860 l -17 1011 l 111 1011 l 153 946 z "},"Ž":{"ha":315,"x_min":-24,"x_max":314,"o":"m 0 972 l 313 972 l 183 150 l 294 150 l 294 0 l 0 0 l 129 822 l 0 822 l 0 972 m 146 1085 l 186 1150 l 314 1150 l 210 999 l 81 999 l -24 1150 l 104 1150 l 146 1085 z "},"ž":{"ha":311,"x_min":-25,"x_max":313,"o":"m 0 833 l 313 833 l 188 150 l 294 150 l 294 0 l 0 0 l 125 683 l 0 683 l 0 833 m 144 946 l 185 1011 l 313 1011 l 208 860 l 79 860 l -25 1011 l 103 1011 l 144 946 z "},"Š":{"ha":382,"x_min":0,"x_max":364,"o":"m 0 322 l 160 322 l 160 150 l 204 150 l 204 417 l 49 417 q 15 431 29 417 q 0 465 0 446 l 0 924 q 15 958 0 943 q 49 972 29 972 l 53 972 l 311 972 l 315 972 q 349 958 335 972 q 364 924 364 943 l 364 649 l 204 649 l 204 822 l 160 822 l 160 567 l 311 567 l 315 567 q 349 552 335 567 q 364 518 364 538 l 364 53 l 364 49 q 349 15 364 29 q 315 0 335 0 l 53 0 l 49 0 q 15 15 29 0 q 0 49 0 29 l 0 322 m 178 1085 l 218 1150 l 346 1150 l 242 999 l 113 999 l 8 1150 l 136 1150 l 178 1085 z "},"š":{"ha":392,"x_min":0,"x_max":364,"o":"m 0 281 l 160 281 l 160 150 l 204 150 l 204 347 l 49 347 q 15 362 29 347 q 0 396 0 376 l 0 785 q 15 819 0 804 q 49 833 29 833 l 53 833 l 311 833 l 315 833 q 349 819 335 833 q 364 785 364 804 l 364 551 l 204 551 l 204 683 l 160 683 l 160 497 l 311 497 l 315 497 q 349 483 335 497 q 364 449 364 468 l 364 53 l 364 49 q 349 15 364 29 q 315 0 335 0 l 53 0 l 49 0 q 15 15 29 0 q 0 49 0 29 l 0 281 m 182 946 l 222 1011 l 350 1011 l 246 860 l 117 860 l 13 1011 l 140 1011 l 182 946 z "},"Æ":{"ha":542,"x_min":-31,"x_max":528,"o":"m 232 72 l 147 72 l 128 0 l -31 0 l 225 972 l 388 972 l 392 0 l 232 0 l 232 72 m 256 592 l 186 222 l 231 222 l 256 592 m 233 972 l 528 972 l 528 822 l 393 822 l 393 567 l 528 567 l 528 417 l 393 417 l 393 150 l 528 150 l 528 0 l 233 0 l 233 972 z "},"æ":{"ha":589,"x_min":0,"x_max":569,"o":"m 315 833 q 349 819 335 833 q 364 785 364 804 l 364 781 l 364 0 l 49 0 q 15 15 29 0 q 0 49 0 29 l 0 549 q 15 583 0 568 q 49 597 29 597 l 204 597 l 204 683 l 0 683 l 0 833 l 315 833 m 160 150 l 204 150 l 204 447 l 160 447 l 160 150 m 365 378 l 365 150 l 410 150 l 410 274 l 569 274 l 569 49 q 555 15 569 29 q 521 0 540 0 l 254 0 q 220 15 235 0 q 206 49 206 29 l 206 785 q 220 819 206 804 q 254 833 235 833 l 521 833 q 555 819 540 833 q 569 785 569 804 l 569 378 l 365 378 m 365 526 l 410 526 l 410 683 l 365 683 l 365 526 z "},"â":{"ha":383,"x_min":0,"x_max":364,"o":"m 315 833 q 349 819 335 833 q 364 785 364 804 l 364 781 l 364 0 l 49 0 q 15 15 29 0 q 0 49 0 29 l 0 549 q 15 583 0 568 q 49 597 29 597 l 204 597 l 204 683 l 0 683 l 0 833 l 315 833 m 160 150 l 204 150 l 204 447 l 160 447 l 160 150 m 190 926 l 150 861 l 22 861 l 126 1013 l 256 1013 l 360 861 l 232 861 l 190 926 z "},"´":{"ha":289,"x_min":8,"x_max":246,"o":"m 8 893 l 126 932 l 246 932 l 246 867 l 10 867 l 8 893 z "},"`":{"ha":279,"x_min":-18,"x_max":219,"o":"m 218 867 l -18 867 l -18 932 l 101 932 l 219 893 l 218 867 z "},"À":{"ha":425,"x_min":0,"x_max":424,"o":"m 254 72 l 169 72 l 160 0 l 0 0 l 131 972 l 293 972 l 424 0 l 264 0 l 254 72 m 211 592 l 189 222 l 233 222 l 211 592 m 329 1006 l 93 1006 l 93 1071 l 213 1071 l 331 1032 l 329 1006 z "},"Á":{"ha":425,"x_min":0,"x_max":424,"o":"m 254 72 l 169 72 l 160 0 l 0 0 l 131 972 l 293 972 l 424 0 l 264 0 l 254 72 m 211 592 l 189 222 l 233 222 l 211 592 m 93 1032 l 211 1071 l 331 1071 l 331 1006 l 94 1006 l 93 1032 z "},"á":{"ha":383,"x_min":0,"x_max":364,"o":"m 315 833 q 349 819 335 833 q 364 785 364 804 l 364 781 l 364 0 l 49 0 q 15 15 29 0 q 0 49 0 29 l 0 549 q 15 583 0 568 q 49 597 29 597 l 204 597 l 204 683 l 0 683 l 0 833 l 315 833 m 160 150 l 204 150 l 204 447 l 160 447 l 160 150 m 72 893 l 190 932 l 310 932 l 310 867 l 74 867 l 72 893 z "},"à":{"ha":383,"x_min":0,"x_max":364,"o":"m 315 833 q 349 819 335 833 q 364 785 364 804 l 364 781 l 364 0 l 49 0 q 15 15 29 0 q 0 49 0 29 l 0 549 q 15 583 0 568 q 49 597 29 597 l 204 597 l 204 683 l 0 683 l 0 833 l 315 833 m 160 150 l 204 150 l 204 447 l 160 447 l 160 150 m 308 867 l 72 867 l 72 932 l 192 932 l 310 893 l 308 867 z "},"¸":{"ha":235,"x_min":61,"x_max":189,"o":"m 169 -64 q 183 -70 176 -64 q 189 -83 189 -76 l 189 -185 q 183 -199 189 -193 q 169 -206 176 -206 l 167 -206 l 61 -206 l 61 -144 l 124 -144 l 124 -125 l 61 -125 l 61 -64 l 83 -64 l 83 21 l 149 21 l 149 -64 l 169 -64 l 169 -64 z "},"Ç":{"ha":386,"x_min":0,"x_max":364,"o":"m 0 924 q 15 958 0 943 q 49 972 29 972 l 53 972 l 315 972 q 349 958 335 972 q 364 924 364 943 l 364 919 l 364 553 l 204 553 l 204 822 l 160 822 l 160 150 l 204 150 l 204 204 l 364 204 l 364 49 q 349 15 364 29 q 315 0 335 0 l 49 0 q 15 15 29 0 q 0 49 0 29 l 0 924 m 238 -64 q 251 -70 244 -64 q 257 -83 257 -76 l 257 -185 q 251 -199 257 -193 q 238 -206 244 -206 l 235 -206 l 129 -206 l 129 -144 l 192 -144 l 192 -125 l 129 -125 l 129 -64 l 151 -64 l 151 21 l 217 21 l 217 -64 l 238 -64 l 238 -64 z "},"ç":{"ha":388,"x_min":0,"x_max":364,"o":"m 160 150 l 204 150 l 204 274 l 364 274 l 364 49 q 349 15 364 29 q 315 0 335 0 l 49 0 q 15 15 29 0 q 0 49 0 29 l 0 785 q 15 819 0 804 q 49 833 29 833 l 315 833 q 349 819 335 833 q 364 785 364 804 l 364 378 l 204 378 l 204 683 l 160 683 l 160 150 m 238 -64 q 251 -70 244 -64 q 257 -83 257 -76 l 257 -185 q 251 -199 257 -193 q 238 -206 244 -206 l 235 -206 l 129 -206 l 129 -144 l 192 -144 l 192 -125 l 129 -125 l 129 -64 l 151 -64 l 151 21 l 217 21 l 217 -64 l 238 -64 l 238 -64 z "},"È":{"ha":321,"x_min":0,"x_max":294,"o":"m 0 972 l 294 972 l 294 822 l 160 822 l 160 567 l 294 567 l 294 417 l 160 417 l 160 150 l 294 150 l 294 0 l 0 0 l 0 972 m 278 1006 l 42 1006 l 42 1071 l 161 1071 l 279 1032 l 278 1006 z "},"˛":{"ha":235,"x_min":50,"x_max":175,"o":"m 69 -67 l 89 -67 l 89 15 l 153 15 l 153 -67 l 175 -67 l 175 -126 l 114 -126 l 114 -146 l 175 -146 l 175 -206 l 72 -206 l 69 -206 q 56 -199 63 -206 q 50 -185 50 -193 l 50 -86 q 56 -73 50 -79 q 69 -67 63 -67 z "},"è":{"ha":383,"x_min":0,"x_max":364,"o":"m 160 378 l 160 150 l 204 150 l 204 274 l 364 274 l 364 49 q 349 15 364 29 q 315 0 335 0 l 49 0 q 15 15 29 0 q 0 49 0 29 l 0 785 q 15 819 0 804 q 49 833 29 833 l 315 833 q 349 819 335 833 q 364 785 364 804 l 364 378 l 160 378 m 160 526 l 204 526 l 204 683 l 160 683 l 160 526 m 308 867 l 72 867 l 72 932 l 192 932 l 310 893 l 308 867 z "},"é":{"ha":383,"x_min":0,"x_max":364,"o":"m 160 378 l 160 150 l 204 150 l 204 274 l 364 274 l 364 49 q 349 15 364 29 q 315 0 335 0 l 49 0 q 15 15 29 0 q 0 49 0 29 l 0 785 q 15 819 0 804 q 49 833 29 833 l 315 833 q 349 819 335 833 q 364 785 364 804 l 364 378 l 160 378 m 160 526 l 204 526 l 204 683 l 160 683 l 160 526 m 72 893 l 190 932 l 310 932 l 310 867 l 74 867 l 72 893 z "},"ê":{"ha":383,"x_min":0,"x_max":364,"o":"m 160 378 l 160 150 l 204 150 l 204 274 l 364 274 l 364 49 q 349 15 364 29 q 315 0 335 0 l 49 0 q 15 15 29 0 q 0 49 0 29 l 0 785 q 15 819 0 804 q 49 833 29 833 l 315 833 q 349 819 335 833 q 364 785 364 804 l 364 378 l 160 378 m 160 526 l 204 526 l 204 683 l 160 683 l 160 526 m 190 926 l 150 861 l 22 861 l 126 1013 l 256 1013 l 360 861 l 232 861 l 190 926 z "},"Ê":{"ha":321,"x_min":-7,"x_max":331,"o":"m 0 972 l 294 972 l 294 822 l 160 822 l 160 567 l 294 567 l 294 417 l 160 417 l 160 150 l 294 150 l 294 0 l 0 0 l 0 972 m 161 1065 l 121 1000 l -7 1000 l 97 1151 l 226 1151 l 331 1000 l 203 1000 l 161 1065 z "},"É":{"ha":321,"x_min":0,"x_max":294,"o":"m 0 972 l 294 972 l 294 822 l 160 822 l 160 567 l 294 567 l 294 417 l 160 417 l 160 150 l 294 150 l 294 0 l 0 0 l 0 972 m 42 1032 l 160 1071 l 279 1071 l 279 1006 l 43 1006 l 42 1032 z "},"Ì":{"ha":257,"x_min":3,"x_max":247,"o":"m 3 972 l 236 972 l 236 822 l 201 822 l 201 150 l 236 150 l 236 0 l 3 0 l 3 150 l 42 150 l 42 822 l 3 822 l 3 972 m 246 1006 l 10 1006 l 10 1071 l 129 1071 l 247 1032 l 246 1006 z "},"Í":{"ha":257,"x_min":3,"x_max":247,"o":"m 3 972 l 236 972 l 236 822 l 201 822 l 201 150 l 236 150 l 236 0 l 3 0 l 3 150 l 42 150 l 42 822 l 3 822 l 3 972 m 10 1032 l 128 1071 l 247 1071 l 247 1006 l 11 1006 l 10 1032 z "},"Î":{"ha":257,"x_min":-39,"x_max":299,"o":"m 3 972 l 236 972 l 236 822 l 201 822 l 201 150 l 236 150 l 236 0 l 3 0 l 3 150 l 42 150 l 42 822 l 3 822 l 3 972 m 129 1065 l 89 1000 l -39 1000 l 65 1151 l 194 1151 l 299 1000 l 171 1000 l 129 1065 z "},"Ï":{"ha":257,"x_min":3,"x_max":257,"o":"m 3 972 l 236 972 l 236 822 l 201 822 l 201 150 l 236 150 l 236 0 l 3 0 l 3 150 l 42 150 l 42 822 l 3 822 l 3 972 m 4 1117 l 117 1117 l 117 1000 l 4 1000 l 4 1117 m 144 1117 l 257 1117 l 257 1000 l 144 1000 l 144 1117 z "},"Ð":{"ha":382,"x_min":0,"x_max":364,"o":"m 0 972 l 315 972 q 349 958 335 972 q 364 924 364 943 l 364 49 q 349 15 364 29 q 315 0 335 0 l 0 0 l 0 972 m 160 579 l 186 579 l 186 379 l 160 379 l 160 150 l 204 150 l 204 822 l 160 822 l 160 579 z "},"Ñ":{"ha":383,"x_min":0,"x_max":368,"o":"m 0 972 l 103 972 l 208 485 l 208 972 l 368 972 l 368 0 l 239 0 l 160 365 l 160 0 l 0 0 l 0 972 m 151 1011 l 151 1079 l 131 1079 l 131 1008 l 54 1008 l 54 1129 q 60 1146 54 1139 q 78 1153 67 1153 l 203 1153 l 207 1153 q 223 1146 215 1153 q 231 1129 231 1139 l 231 1057 l 250 1057 l 250 1129 l 328 1129 l 328 1008 q 321 991 328 999 q 304 983 314 983 l 175 983 q 158 991 165 983 q 151 1008 151 999 l 151 1011 z "},"Ò":{"ha":379,"x_min":0,"x_max":364,"o":"m 315 972 q 349 958 335 972 q 364 924 364 943 l 364 53 l 364 49 q 349 15 364 29 q 315 0 335 0 l 53 0 l 49 0 q 15 15 29 0 q 0 49 0 29 l 0 53 l 0 924 q 15 958 0 943 q 49 972 29 972 l 311 972 l 315 972 m 160 150 l 204 150 l 204 822 l 160 822 l 160 150 m 307 1006 l 71 1006 l 71 1071 l 190 1071 l 308 1032 l 307 1006 z "},"Ó":{"ha":379,"x_min":0,"x_max":364,"o":"m 315 972 q 349 958 335 972 q 364 924 364 943 l 364 53 l 364 49 q 349 15 364 29 q 315 0 335 0 l 53 0 l 49 0 q 15 15 29 0 q 0 49 0 29 l 0 53 l 0 924 q 15 958 0 943 q 49 972 29 972 l 311 972 l 315 972 m 160 150 l 204 150 l 204 822 l 160 822 l 160 150 m 71 1032 l 189 1071 l 308 1071 l 308 1006 l 72 1006 l 71 1032 z "},"Ô":{"ha":379,"x_min":0,"x_max":364,"o":"m 315 972 q 349 958 335 972 q 364 924 364 943 l 364 53 l 364 49 q 349 15 364 29 q 315 0 335 0 l 53 0 l 49 0 q 15 15 29 0 q 0 49 0 29 l 0 53 l 0 924 q 15 958 0 943 q 49 972 29 972 l 311 972 l 315 972 m 160 150 l 204 150 l 204 822 l 160 822 l 160 150 m 189 1065 l 149 1000 l 21 1000 l 125 1151 l 254 1151 l 358 1000 l 231 1000 l 189 1065 z "},"Õ":{"ha":379,"x_min":0,"x_max":364,"o":"m 315 972 q 349 958 335 972 q 364 924 364 943 l 364 53 l 364 49 q 349 15 364 29 q 315 0 335 0 l 53 0 l 49 0 q 15 15 29 0 q 0 49 0 29 l 0 53 l 0 924 q 15 958 0 943 q 49 972 29 972 l 311 972 l 315 972 m 160 150 l 204 150 l 204 822 l 160 822 l 160 150 m 150 1011 l 150 1079 l 129 1079 l 129 1008 l 53 1008 l 53 1129 q 59 1146 53 1139 q 76 1153 65 1153 l 201 1153 l 206 1153 q 222 1146 214 1153 q 229 1129 229 1139 l 229 1057 l 249 1057 l 249 1129 l 326 1129 l 326 1008 q 319 991 326 999 q 303 983 313 983 l 174 983 q 157 991 164 983 q 150 1008 150 999 l 150 1011 z "},"/":{"ha":465,"x_min":0,"x_max":465,"o":"m 160 0 l 0 0 l 306 972 l 465 972 l 160 0 z "},"Ø":{"ha":379,"x_min":-42,"x_max":424,"o":"m 315 972 q 349 958 335 972 q 364 924 364 943 l 364 53 l 364 49 q 349 15 364 29 q 315 0 335 0 l 53 0 l 49 0 q 15 15 29 0 q 0 49 0 29 l 0 53 l 0 924 q 15 958 0 943 q 49 972 29 972 l 311 972 l 315 972 m 160 150 l 204 150 l 204 822 l 160 822 l 160 150 m 118 0 l -42 0 l 264 972 l 424 972 l 118 0 z "},"ø":{"ha":386,"x_min":-37,"x_max":407,"o":"m 315 833 q 349 819 335 833 q 364 785 364 804 l 364 53 l 364 49 q 349 15 364 29 q 315 0 335 0 l 53 0 l 49 0 q 15 15 29 0 q 0 49 0 29 l 0 53 l 0 785 q 15 819 0 804 q 49 833 29 833 l 311 833 l 315 833 m 160 150 l 204 150 l 204 683 l 160 683 l 160 150 m 116 0 l -37 0 l 255 831 l 408 831 l 116 0 z "},"Ù":{"ha":382,"x_min":0,"x_max":364,"o":"m 160 150 l 204 150 l 204 972 l 364 972 l 364 49 q 349 15 364 29 q 315 0 335 0 l 311 0 l 49 0 q 15 15 29 0 q 0 49 0 29 l 0 972 l 160 972 l 160 150 m 308 1006 l 72 1006 l 72 1071 l 192 1071 l 310 1032 l 308 1006 z "},"Ú":{"ha":382,"x_min":0,"x_max":364,"o":"m 160 150 l 204 150 l 204 972 l 364 972 l 364 49 q 349 15 364 29 q 315 0 335 0 l 311 0 l 49 0 q 15 15 29 0 q 0 49 0 29 l 0 972 l 160 972 l 160 150 m 72 1032 l 190 1071 l 310 1071 l 310 1006 l 74 1006 l 72 1032 z "},"Û":{"ha":382,"x_min":0,"x_max":364,"o":"m 160 150 l 204 150 l 204 972 l 364 972 l 364 49 q 349 15 364 29 q 315 0 335 0 l 311 0 l 49 0 q 15 15 29 0 q 0 49 0 29 l 0 972 l 160 972 l 160 150 m 190 1065 l 150 1000 l 22 1000 l 126 1151 l 256 1151 l 360 1000 l 232 1000 l 190 1065 z "},"Ü":{"ha":382,"x_min":0,"x_max":364,"o":"m 160 150 l 204 150 l 204 972 l 364 972 l 364 49 q 349 15 364 29 q 315 0 335 0 l 311 0 l 49 0 q 15 15 29 0 q 0 49 0 29 l 0 972 l 160 972 l 160 150 m 64 1117 l 176 1117 l 176 1000 l 64 1000 l 64 1117 m 204 1117 l 317 1117 l 317 1000 l 204 1000 l 204 1117 z "},"Ý":{"ha":357,"x_min":3,"x_max":357,"o":"m 100 515 l 3 972 l 163 972 l 186 732 l 211 972 l 357 972 l 260 515 l 260 0 l 100 0 l 100 515 m 60 1032 l 178 1071 l 297 1071 l 297 1006 l 61 1006 l 60 1032 z "},"ÿ":{"ha":415,"x_min":-1,"x_max":418,"o":"m 144 -82 l -1 833 l 157 833 l 208 319 l 260 833 l 418 833 l 261 -208 l 128 -208 l 144 -82 m 81 978 l 193 978 l 193 861 l 81 861 l 81 978 m 221 978 l 333 978 l 333 861 l 221 861 l 221 978 z "},"ý":{"ha":415,"x_min":-1,"x_max":418,"o":"m 144 -82 l -1 833 l 157 833 l 208 319 l 260 833 l 418 833 l 261 -208 l 128 -208 l 144 -82 m 89 893 l 207 932 l 326 932 l 326 867 l 90 867 l 89 893 z "},"ü":{"ha":382,"x_min":0,"x_max":364,"o":"m 160 150 l 204 150 l 204 833 l 364 833 l 364 49 q 349 15 364 29 q 315 0 335 0 l 311 0 l 49 0 q 15 15 29 0 q 0 49 0 29 l 0 833 l 160 833 l 160 150 m 64 978 l 176 978 l 176 861 l 64 861 l 64 978 m 204 978 l 317 978 l 317 861 l 204 861 l 204 978 z "},"û":{"ha":382,"x_min":0,"x_max":364,"o":"m 160 150 l 204 150 l 204 833 l 364 833 l 364 49 q 349 15 364 29 q 315 0 335 0 l 311 0 l 49 0 q 15 15 29 0 q 0 49 0 29 l 0 833 l 160 833 l 160 150 m 190 926 l 150 861 l 22 861 l 126 1013 l 256 1013 l 360 861 l 232 861 l 190 926 z "},"ú":{"ha":382,"x_min":0,"x_max":364,"o":"m 160 150 l 204 150 l 204 833 l 364 833 l 364 49 q 349 15 364 29 q 315 0 335 0 l 311 0 l 49 0 q 15 15 29 0 q 0 49 0 29 l 0 833 l 160 833 l 160 150 m 72 893 l 190 932 l 310 932 l 310 867 l 74 867 l 72 893 z "},"ù":{"ha":382,"x_min":0,"x_max":364,"o":"m 160 150 l 204 150 l 204 833 l 364 833 l 364 49 q 349 15 364 29 q 315 0 335 0 l 311 0 l 49 0 q 15 15 29 0 q 0 49 0 29 l 0 833 l 160 833 l 160 150 m 308 867 l 72 867 l 72 932 l 192 932 l 310 893 l 308 867 z "},"õ":{"ha":386,"x_min":0,"x_max":364,"o":"m 315 833 q 349 819 335 833 q 364 785 364 804 l 364 53 l 364 49 q 349 15 364 29 q 315 0 335 0 l 53 0 l 49 0 q 15 15 29 0 q 0 49 0 29 l 0 53 l 0 785 q 15 819 0 804 q 49 833 29 833 l 311 833 l 315 833 m 160 150 l 204 150 l 204 683 l 160 683 l 160 150 m 153 872 l 153 940 l 132 940 l 132 869 l 56 869 l 56 990 q 62 1007 56 1000 q 79 1014 68 1014 l 204 1014 l 208 1014 q 224 1007 217 1014 q 232 990 232 1000 l 232 918 l 251 918 l 251 990 l 329 990 l 329 869 q 322 852 329 860 q 306 844 315 844 l 176 844 q 160 852 167 844 q 153 869 153 860 l 153 872 z "},"ô":{"ha":386,"x_min":0,"x_max":364,"o":"m 315 833 q 349 819 335 833 q 364 785 364 804 l 364 53 l 364 49 q 349 15 364 29 q 315 0 335 0 l 53 0 l 49 0 q 15 15 29 0 q 0 49 0 29 l 0 53 l 0 785 q 15 819 0 804 q 49 833 29 833 l 311 833 l 315 833 m 160 150 l 204 150 l 204 683 l 160 683 l 160 150 m 192 926 l 151 861 l 24 861 l 128 1013 l 257 1013 l 361 861 l 233 861 l 192 926 z "},"ó":{"ha":386,"x_min":0,"x_max":364,"o":"m 315 833 q 349 819 335 833 q 364 785 364 804 l 364 53 l 364 49 q 349 15 364 29 q 315 0 335 0 l 53 0 l 49 0 q 15 15 29 0 q 0 49 0 29 l 0 53 l 0 785 q 15 819 0 804 q 49 833 29 833 l 311 833 l 315 833 m 160 150 l 204 150 l 204 683 l 160 683 l 160 150 m 74 893 l 192 932 l 311 932 l 311 867 l 75 867 l 74 893 z "},"ò":{"ha":386,"x_min":0,"x_max":364,"o":"m 315 833 q 349 819 335 833 q 364 785 364 804 l 364 53 l 364 49 q 349 15 364 29 q 315 0 335 0 l 53 0 l 49 0 q 15 15 29 0 q 0 49 0 29 l 0 53 l 0 785 q 15 819 0 804 q 49 833 29 833 l 311 833 l 315 833 m 160 150 l 204 150 l 204 683 l 160 683 l 160 150 m 310 867 l 74 867 l 74 932 l 193 932 l 311 893 l 310 867 z "},"ñ":{"ha":383,"x_min":0,"x_max":364,"o":"m 204 683 l 160 683 l 160 0 l 0 0 l 0 833 l 311 833 l 315 833 q 349 819 335 833 q 364 785 364 804 l 364 781 l 364 0 l 204 0 l 204 683 m 151 872 l 151 940 l 131 940 l 131 869 l 54 869 l 54 990 q 60 1007 54 1000 q 78 1014 67 1014 l 203 1014 l 207 1014 q 223 1007 215 1014 q 231 990 231 1000 l 231 918 l 250 918 l 250 990 l 328 990 l 328 869 q 321 852 328 860 q 304 844 314 844 l 175 844 q 158 852 165 844 q 151 869 151 860 l 151 872 z "},"ð":{"ha":378,"x_min":0,"x_max":379,"o":"m 122 938 l 176 938 l 176 972 l 336 972 l 336 938 l 379 938 l 379 879 l 338 879 l 364 0 l 49 0 q 15 15 29 0 q 0 49 0 29 l 0 785 q 15 819 0 804 q 49 833 29 833 l 181 833 l 179 879 l 122 879 l 122 938 m 160 150 l 200 150 l 185 683 l 160 683 l 160 150 z "},"ï":{"ha":189,"x_min":-32,"x_max":221,"o":"m 167 0 l 7 0 l 7 801 l 167 801 l 167 0 m -32 978 l 81 978 l 81 861 l -32 861 l -32 978 m 108 978 l 221 978 l 221 861 l 108 861 l 108 978 z "},"î":{"ha":189,"x_min":-74,"x_max":264,"o":"m 167 0 l 7 0 l 7 801 l 167 801 l 167 0 m 94 926 l 54 861 l -74 861 l 31 1013 l 160 1013 l 264 861 l 136 861 l 94 926 z "},"í":{"ha":189,"x_min":-24,"x_max":214,"o":"m 167 801 l 7 801 l 7 0 l 167 0 l 167 801 m -24 893 l 94 932 l 214 932 l 214 867 l -22 867 l -24 893 z "},"ì":{"ha":189,"x_min":-24,"x_max":214,"o":"m 167 0 l 7 0 l 7 801 l 167 801 l 167 0 m 213 867 l -24 867 l -24 932 l 96 932 l 214 893 l 213 867 z "},"Œ":{"ha":510,"x_min":0,"x_max":496,"o":"m 315 972 q 349 958 335 972 q 364 924 364 943 l 364 53 l 364 49 q 349 15 364 29 q 315 0 335 0 l 53 0 l 49 0 q 15 15 29 0 q 0 49 0 29 l 0 53 l 0 924 q 15 958 0 943 q 49 972 29 972 l 311 972 l 315 972 m 160 150 l 204 150 l 204 822 l 160 822 l 160 150 m 201 972 l 496 972 l 496 822 l 361 822 l 361 567 l 496 567 l 496 417 l 361 417 l 361 150 l 496 150 l 496 0 l 201 0 l 201 972 z "},"œ":{"ha":583,"x_min":0,"x_max":569,"o":"m 315 833 q 349 819 335 833 q 364 785 364 804 l 364 53 l 364 49 q 349 15 364 29 q 315 0 335 0 l 53 0 l 49 0 q 15 15 29 0 q 0 49 0 29 l 0 53 l 0 785 q 15 819 0 804 q 49 833 29 833 l 311 833 l 315 833 m 160 150 l 204 150 l 204 683 l 160 683 l 160 150 m 365 378 l 365 150 l 410 150 l 410 274 l 569 274 l 569 49 q 555 15 569 29 q 521 0 540 0 l 254 0 q 220 15 235 0 q 206 49 206 29 l 206 785 q 220 819 206 804 q 254 833 235 833 l 521 833 q 555 819 540 833 q 569 785 569 804 l 569 378 l 365 378 m 365 526 l 410 526 l 410 683 l 365 683 l 365 526 z "},"Ÿ":{"ha":357,"x_min":3,"x_max":357,"o":"m 100 515 l 3 972 l 163 972 l 186 732 l 211 972 l 357 972 l 260 515 l 260 0 l 100 0 l 100 515 m 51 1117 l 164 1117 l 164 1000 l 51 1000 l 51 1117 m 192 1117 l 304 1117 l 304 1000 l 192 1000 l 192 1117 z "},"?":{"ha":376,"x_min":0,"x_max":364,"o":"m 364 919 l 364 400 l 364 396 q 349 362 364 376 q 315 347 335 347 l 236 347 l 236 257 l 76 257 l 76 497 l 204 497 l 204 822 l 160 822 l 160 590 l 0 590 l 0 924 q 15 958 0 943 q 49 972 29 972 l 53 972 l 311 972 l 315 972 q 349 958 335 972 q 364 924 364 943 l 364 919 m 78 150 l 238 150 l 238 0 l 78 0 l 78 150 z "},"@":{"ha":750,"x_min":0,"x_max":739,"o":"m 393 486 l 349 486 l 349 356 l 368 356 l 368 206 l 242 206 l 238 206 q 203 220 218 206 q 189 254 189 235 l 189 258 l 189 588 q 203 622 189 607 q 238 636 218 636 l 500 636 l 504 636 q 538 622 524 636 q 553 588 553 607 l 553 356 l 579 356 l 579 683 l 160 683 l 160 150 l 690 150 l 690 0 l 53 0 l 49 0 q 15 15 29 0 q 0 49 0 29 l 0 53 l 0 785 q 15 819 0 804 q 49 833 29 833 l 686 833 l 690 833 q 724 819 710 833 q 739 785 739 804 l 739 781 l 739 258 l 739 254 q 724 220 739 235 q 690 206 710 206 l 686 206 l 393 206 l 393 486 z "},"&":{"ha":425,"x_min":0,"x_max":404,"o":"m 404 410 l 364 410 l 364 182 q 349 112 364 144 q 310 54 335 79 q 252 15 285 29 q 182 0 219 0 q 112 15 144 0 q 54 54 79 29 q 15 112 29 79 q 0 182 0 144 l 0 396 q 24 438 0 424 q 0 479 0 451 l 0 790 q 15 860 0 828 q 54 918 29 893 q 112 958 79 943 q 182 972 144 972 q 252 958 219 972 q 310 918 285 943 q 349 860 335 893 q 364 790 364 828 l 364 621 l 201 621 l 201 822 q 183 838 196 838 q 165 822 171 838 l 165 560 l 404 560 l 404 410 m 181 135 q 200 150 194 135 l 200 410 l 165 410 l 164 150 q 181 135 169 135 z "},"⁄":{"ha":694,"x_min":114,"x_max":579,"o":"m 274 0 l 114 0 l 419 972 l 579 972 l 274 0 z "},"%":{"ha":694,"x_min":26,"x_max":665,"o":"m 276 972 q 302 960 290 972 q 314 935 314 949 l 314 740 l 314 736 q 302 708 314 719 q 276 696 290 696 l 68 696 l 64 696 q 38 708 49 696 q 26 736 26 719 l 26 740 l 26 935 q 38 960 26 949 q 64 972 49 972 l 271 972 l 276 972 m 628 278 q 653 266 642 278 q 665 240 665 254 l 665 42 q 653 13 665 25 q 628 1 642 1 l 419 1 l 415 1 q 389 13 400 1 q 378 42 378 25 l 378 235 l 378 240 q 389 266 378 254 q 415 278 400 278 l 622 278 l 628 278 m 151 815 l 186 815 l 186 853 l 151 853 l 151 815 m 503 121 l 538 121 l 538 158 l 503 158 l 503 121 m 274 0 l 114 0 l 419 972 l 579 972 l 274 0 z "},"°":{"ha":158,"x_min":0,"x_max":147,"o":"m 128 875 q 141 869 135 875 q 147 856 147 863 l 147 754 q 141 740 147 746 q 128 733 135 733 l 22 733 l 19 733 q 6 740 11 733 q 0 754 0 746 l 0 757 l 0 856 q 6 869 0 863 q 19 875 11 875 l 22 875 l 125 875 l 128 875 m 64 794 l 82 794 l 82 814 l 64 814 l 64 794 z "},"-":{"ha":335,"x_min":7,"x_max":315,"o":"m 315 447 l 7 447 l 7 597 l 315 597 l 315 447 z "},"−":{"ha":335,"x_min":7,"x_max":315,"o":"m 315 447 l 7 447 l 7 597 l 315 597 l 315 447 z "},"–":{"ha":432,"x_min":7,"x_max":413,"o":"m 413 447 l 7 447 l 7 597 l 413 597 l 413 447 z "},"—":{"ha":544,"x_min":7,"x_max":510,"o":"m 510 447 l 7 447 l 7 597 l 510 597 l 510 447 z "},",":{"ha":174,"x_min":6,"x_max":151,"o":"m 6 150 l 151 150 l 151 0 l 150 0 l 151 -50 l 64 -99 l 65 0 l 6 0 l 6 150 z "},"+":{"ha":335,"x_min":7,"x_max":315,"o":"m 236 676 l 236 597 l 315 597 l 315 447 l 236 447 l 236 368 l 86 368 l 86 447 l 7 447 l 7 597 l 86 597 l 86 676 l 236 676 z "},"'":{"ha":181,"x_min":6,"x_max":151,"o":"m 6 983 l 151 983 l 151 833 l 150 833 l 151 783 l 64 735 l 65 833 l 6 833 l 6 983 z "},"’":{"ha":181,"x_min":6,"x_max":151,"o":"m 6 983 l 151 983 l 151 833 l 150 833 l 151 783 l 64 735 l 65 833 l 6 833 l 6 983 z "},"‘":{"ha":181,"x_min":4,"x_max":150,"o":"m 150 733 l 4 733 l 4 883 l 4 933 l 92 982 l 90 883 l 150 883 l 150 733 z "},"”":{"ha":342,"x_min":6,"x_max":318,"o":"m 6 983 l 151 983 l 151 833 l 150 833 l 151 783 l 64 735 l 65 833 l 6 833 l 6 983 m 172 983 l 318 983 l 318 833 l 317 833 l 318 783 l 231 735 l 232 833 l 172 833 l 172 983 z "},"“":{"ha":342,"x_min":4,"x_max":317,"o":"m 317 733 l 171 733 l 171 883 l 171 933 l 258 982 l 257 883 l 317 883 l 317 733 m 150 733 l 4 733 l 4 883 l 4 933 l 92 982 l 90 883 l 150 883 l 150 733 z "},"ƒ":{"ha":388,"x_min":0,"x_max":364,"o":"m 315 972 q 349 958 335 972 q 364 924 364 943 l 364 919 l 364 715 l 204 715 l 204 822 l 160 822 l 160 667 l 364 667 l 364 517 l 160 517 l 160 -208 l 0 -208 l 0 924 q 15 958 0 943 q 49 972 29 972 l 315 972 l 315 972 z "},"Þ":{"ha":382,"x_min":0,"x_max":364,"o":"m 160 833 l 311 833 l 315 833 q 349 819 335 833 q 364 785 364 804 l 364 178 l 364 174 q 349 140 364 154 q 315 125 335 125 l 311 125 l 160 125 l 160 0 l 0 0 l 0 972 l 160 972 l 160 833 m 160 275 l 204 275 l 204 683 l 160 683 l 160 275 z "},"þ":{"ha":388,"x_min":0,"x_max":364,"o":"m 160 833 l 311 833 l 315 833 q 349 819 335 833 q 364 785 364 804 l 364 53 l 364 49 q 349 15 364 29 q 315 0 335 0 l 311 0 l 160 0 l 160 -208 l 0 -208 l 0 972 l 160 972 l 160 833 m 160 150 l 204 150 l 204 683 l 160 683 l 160 150 z "},"ß":{"ha":381,"x_min":0,"x_max":364,"o":"m 183 150 l 204 150 l 204 378 l 188 378 l 188 528 l 204 528 l 204 822 l 160 822 l 160 0 l 0 0 l 0 972 l 311 972 l 315 972 q 349 958 335 972 q 364 924 364 943 l 364 576 q 351 543 364 557 q 319 528 338 529 q 351 512 338 525 q 364 479 364 499 l 364 49 q 349 15 364 29 q 315 0 335 0 l 183 0 l 183 150 z "},"!":{"ha":183,"x_min":6,"x_max":165,"o":"m 6 150 l 165 150 l 165 0 l 6 0 l 6 150 m 6 974 l 165 974 l 165 194 l 6 194 l 6 974 z "},"¡":{"ha":183,"x_min":6,"x_max":165,"o":"m 6 685 l 165 685 l 165 835 l 6 835 l 6 685 m 6 -139 l 165 -139 l 165 640 l 6 640 l 6 -139 z "},"¿":{"ha":376,"x_min":0,"x_max":364,"o":"m 0 -155 l 0 364 l 0 368 q 15 402 0 388 q 49 417 29 417 l 128 417 l 128 507 l 288 507 l 288 267 l 160 267 l 160 -58 l 204 -58 l 204 174 l 364 174 l 364 -160 q 349 -194 364 -179 q 315 -208 335 -208 l 311 -208 l 53 -208 l 49 -208 q 15 -194 29 -208 q 0 -160 0 -179 l 0 -155 m 286 614 l 126 614 l 126 764 l 286 764 l 286 614 z "},"=":{"ha":335,"x_min":7,"x_max":315,"o":"m 315 447 l 7 447 l 7 597 l 315 597 l 315 447 m 315 267 l 7 267 l 7 417 l 315 417 l 315 267 z "},"#":{"ha":494,"x_min":0,"x_max":469,"o":"m 258 250 l 210 250 l 210 0 l 50 0 l 50 250 l 0 250 l 0 400 l 50 400 l 50 486 l 0 486 l 0 636 l 50 636 l 50 833 l 210 833 l 210 636 l 258 636 l 258 833 l 418 833 l 418 636 l 469 636 l 469 486 l 418 486 l 418 400 l 469 400 l 469 250 l 418 250 l 418 0 l 258 0 l 258 250 m 210 400 l 258 400 l 258 486 l 210 486 l 210 400 z "},"\"":{"ha":353,"x_min":0,"x_max":340,"o":"m 0 965 l 160 965 l 160 700 l 0 700 l 0 965 m 181 965 l 340 965 l 340 700 l 181 700 l 181 965 z "},"(":{"ha":339,"x_min":0,"x_max":315,"o":"m 315 822 l 160 822 l 160 150 l 315 150 l 315 0 l 53 0 l 49 0 q 15 15 29 0 q 0 49 0 29 l 0 53 l 0 924 q 15 958 0 943 q 49 972 29 972 l 315 972 l 315 822 z "},")":{"ha":339,"x_min":-1,"x_max":314,"o":"m -1 150 l 154 150 l 154 822 l -1 822 l -1 972 l 261 972 l 265 972 q 299 958 285 972 q 314 924 314 943 l 314 49 q 299 15 314 29 q 265 0 285 0 l -1 0 l -1 150 z "},"[":{"ha":339,"x_min":0,"x_max":315,"o":"m 315 822 l 160 822 l 160 150 l 315 150 l 315 0 l 53 0 l 49 0 q 15 15 29 0 q 0 49 0 29 l 0 53 l 0 924 q 15 958 0 943 q 49 972 29 972 l 315 972 l 315 822 z "},"]":{"ha":339,"x_min":-1,"x_max":314,"o":"m -1 150 l 154 150 l 154 822 l -1 822 l -1 972 l 261 972 l 265 972 q 299 958 285 972 q 314 924 314 943 l 314 49 q 299 15 314 29 q 265 0 285 0 l -1 0 l -1 150 z "},"}":{"ha":339,"x_min":-1,"x_max":381,"o":"m -1 150 l 154 150 l 154 822 l -1 822 l -1 972 l 265 972 q 299 958 285 972 q 314 924 314 943 l 314 554 l 381 494 l 314 443 l 314 49 q 299 15 314 29 q 265 0 285 0 l -1 0 l -1 150 z "},"{":{"ha":339,"x_min":-51,"x_max":315,"o":"m 315 822 l 160 822 l 160 150 l 315 150 l 315 0 l 49 0 q 15 15 29 0 q 0 49 0 29 l 0 431 l -51 479 l 0 528 l 0 924 q 15 958 0 943 q 49 972 29 972 l 315 972 l 315 822 z "},";":{"ha":174,"x_min":6,"x_max":151,"o":"m 6 150 l 151 150 l 151 0 l 150 0 l 151 -50 l 64 -99 l 65 0 l 6 0 l 6 150 m 6 779 l 151 779 l 151 629 l 6 629 l 6 779 z "},":":{"ha":183,"x_min":6,"x_max":151,"o":"m 6 150 l 151 150 l 151 0 l 6 0 l 6 150 m 6 779 l 151 779 l 151 629 l 6 629 l 6 779 z "},"|":{"ha":240,"x_min":42,"x_max":201,"o":"m 42 1083 l 201 1083 l 201 -125 l 42 -125 l 42 1083 z "},"˝":{"ha":363,"x_min":40,"x_max":401,"o":"m 179 871 l 263 956 l 267 960 l 372 1014 l 401 956 l 192 849 l 179 871 m 40 871 l 128 960 l 233 1014 l 263 956 l 53 849 l 40 871 z "},"ı":{"ha":189,"x_min":7,"x_max":167,"o":"m 167 0 l 7 0 l 7 801 l 167 801 l 167 0 z "},"ﬁ":{"ha":375,"x_min":0,"x_max":364,"o":"m 364 0 l 204 0 l 204 607 l 364 607 l 364 0 m 315 972 q 349 958 335 972 q 364 924 364 943 l 364 919 l 364 715 l 204 715 l 204 822 l 160 822 l 160 667 l 364 667 l 364 517 l 160 517 l 160 0 l 0 0 l 0 924 q 15 958 0 943 q 49 972 29 972 l 315 972 z "},"ﬂ":{"ha":578,"x_min":0,"x_max":554,"o":"m 315 972 q 349 958 335 972 q 364 924 364 943 l 364 919 l 364 715 l 204 715 l 204 822 l 160 822 l 160 667 l 364 667 l 364 517 l 160 517 l 160 0 l 0 0 l 0 924 q 15 958 0 943 q 49 972 29 972 l 315 972 l 315 972 m 554 0 l 394 0 l 394 972 l 554 972 l 554 0 z "},"Ł":{"ha":315,"x_min":0,"x_max":294,"o":"m 40 454 l 128 543 l 233 597 l 263 539 l 53 432 l 40 454 m 0 972 l 160 972 l 160 150 l 294 150 l 294 0 l 0 0 l 0 972 z "},"ł":{"ha":203,"x_min":7,"x_max":263,"o":"m 40 454 l 128 543 l 233 597 l 263 539 l 53 432 l 40 454 m 167 0 l 7 0 l 7 972 l 167 972 l 167 0 z "},"*":{"ha":404,"x_min":-7,"x_max":385,"o":"m 358 829 l 326 781 l 385 781 l 385 631 l 303 631 l 336 556 l 194 508 l 176 547 l 146 500 l 19 582 l 50 631 l -7 631 l -7 781 l 75 781 l 42 856 l 183 903 l 200 863 l 232 911 l 358 829 z "},"<":{"ha":258,"x_min":-1,"x_max":222,"o":"m 125 436 l 222 376 l 222 188 l -1 342 l -1 533 l 222 688 l 222 499 l 125 436 z "},">":{"ha":258,"x_min":-3,"x_max":221,"o":"m 94 439 l -3 499 l -3 688 l 221 533 l 221 342 l -3 188 l -3 376 l 94 439 z "},"\\":{"ha":465,"x_min":8,"x_max":456,"o":"m 456 0 l 296 0 l 8 972 l 168 972 l 456 0 z "},"^":{"ha":518,"x_min":1,"x_max":489,"o":"m 244 690 l 186 597 l 1 597 l 151 815 l 339 815 l 489 597 l 304 597 l 244 690 z "},"_":{"ha":544,"x_min":7,"x_max":510,"o":"m 510 -150 l 7 -150 l 7 0 l 510 0 l 510 -150 z "},"‰":{"ha":851,"x_min":26,"x_max":828,"o":"m 790 278 q 816 266 804 278 q 828 240 828 254 l 828 42 q 816 13 828 25 q 790 1 804 1 l 415 1 q 389 13 400 1 q 378 42 378 25 l 378 240 q 389 266 378 254 q 415 278 400 278 l 790 278 m 276 972 q 302 960 290 972 q 314 935 314 949 l 314 736 q 302 708 314 719 q 276 696 290 696 l 64 696 q 38 708 49 696 q 26 736 26 719 l 26 935 q 38 960 26 949 q 64 972 49 972 l 276 972 m 503 121 l 538 121 l 538 158 l 503 158 l 503 121 m 665 121 l 700 121 l 700 158 l 665 158 l 665 121 m 151 815 l 186 815 l 186 853 l 151 853 l 151 815 m 274 0 l 114 0 l 419 972 l 579 972 l 274 0 z "},"‹":{"ha":258,"x_min":-1,"x_max":222,"o":"m 125 436 l 222 376 l 222 188 l -1 342 l -1 533 l 222 688 l 222 499 l 125 436 z "},"«":{"ha":483,"x_min":-1,"x_max":458,"o":"m 125 436 l 222 376 l 222 188 l -1 342 l -1 533 l 222 688 l 222 499 l 125 436 m 361 436 l 458 376 l 458 188 l 235 342 l 235 533 l 458 688 l 458 499 l 361 436 z "},"›":{"ha":258,"x_min":-3,"x_max":221,"o":"m 94 439 l -3 499 l -3 688 l 221 533 l 221 342 l -3 188 l -3 376 l 94 439 z "},"»":{"ha":496,"x_min":-3,"x_max":471,"o":"m 94 439 l -3 499 l -3 688 l 221 533 l 221 342 l -3 188 l -3 376 l 94 439 m 344 439 l 247 499 l 247 688 l 471 533 l 471 342 l 247 188 l 247 376 l 344 439 z "},"ª":{"ha":383,"x_min":76,"x_max":283,"o":"m 256 958 q 275 952 267 958 q 283 937 283 945 l 283 935 l 283 585 l 104 585 q 85 591 93 585 q 76 607 76 598 l 76 831 q 85 846 76 839 q 104 852 93 852 l 193 852 l 193 891 l 76 891 l 76 958 l 256 958 m 167 652 l 193 652 l 193 785 l 167 785 l 167 652 z "},"€":{"ha":378,"x_min":0,"x_max":364,"o":"m 204 822 l 160 822 l 160 510 l 343 510 l 343 389 l 160 389 l 160 371 l 343 371 l 343 250 l 160 250 l 160 150 l 204 150 l 204 204 l 364 204 l 364 49 q 349 15 364 29 q 315 0 335 0 l 311 0 l 53 0 l 49 0 q 15 15 29 0 q 0 49 0 29 l 0 924 q 15 958 0 943 q 49 972 29 972 l 53 972 l 315 972 q 349 958 335 972 q 364 924 364 943 l 364 919 l 364 553 l 204 553 l 204 822 z "},"‚":{"ha":174,"x_min":6,"x_max":151,"o":"m 6 150 l 151 150 l 151 0 l 150 0 l 151 -50 l 64 -99 l 65 0 l 6 0 l 6 150 z "},"„":{"ha":338,"x_min":6,"x_max":318,"o":"m 6 150 l 151 150 l 151 0 l 150 0 l 151 -50 l 64 -99 l 65 0 l 6 0 l 6 150 m 172 150 l 318 150 l 318 0 l 317 0 l 318 -50 l 231 -99 l 232 0 l 172 0 l 172 150 z "},"…":{"ha":550,"x_min":6,"x_max":518,"o":"m 6 150 l 151 150 l 151 0 l 6 0 l 6 150 m 189 150 l 335 150 l 335 0 l 189 0 l 189 150 m 372 150 l 518 150 l 518 0 l 372 0 l 372 150 z "},"†":{"ha":694,"x_min":193,"x_max":501,"o":"m 501 447 l 426 447 l 426 -125 l 267 -125 l 267 447 l 193 447 l 193 597 l 267 597 l 267 1083 l 426 1083 l 426 597 l 501 597 l 501 447 z "},"‡":{"ha":694,"x_min":193,"x_max":501,"o":"m 501 153 l 426 153 l 426 -125 l 267 -125 l 267 153 l 193 153 l 193 303 l 267 303 l 267 639 l 193 639 l 193 789 l 267 789 l 267 1083 l 426 1083 l 426 789 l 501 789 l 501 639 l 426 639 l 426 303 l 501 303 l 501 153 z "},"™":{"ha":428,"x_min":0,"x_max":400,"o":"m 251 757 l 261 557 l 261 535 l 190 535 l 190 972 l 286 972 l 293 863 l 299 972 l 400 972 l 400 535 l 328 535 l 328 557 l 336 758 l 317 535 l 274 535 l 251 757 m 0 972 l 181 972 l 181 904 l 128 904 l 128 535 l 57 535 l 57 904 l 0 904 l 0 972 z "},"•":{"ha":378,"x_min":22,"x_max":343,"o":"m 22 457 q 35 519 22 490 q 69 571 47 549 q 119 606 90 593 q 182 618 149 618 q 244 606 215 618 q 296 571 274 593 q 331 519 318 549 q 343 457 343 490 q 331 394 343 424 q 296 344 318 365 q 244 310 274 322 q 182 297 215 297 q 119 310 149 297 q 69 344 90 322 q 35 394 47 365 q 22 457 22 424 z "},"¢":{"ha":388,"x_min":0,"x_max":364,"o":"m 118 0 l 49 0 q 15 15 29 0 q 0 49 0 29 l 0 785 q 15 819 0 804 q 49 833 29 833 l 114 833 l 114 906 l 250 906 l 250 833 l 315 833 q 349 819 335 833 q 364 785 364 804 l 364 378 l 204 378 l 204 683 l 160 683 l 160 150 l 204 150 l 204 274 l 364 274 l 364 49 q 349 15 364 29 q 315 0 335 0 l 250 0 l 250 -67 l 118 -67 l 118 0 z "},"£":{"ha":315,"x_min":-21,"x_max":294,"o":"m 0 418 l -21 418 l -21 568 l 0 568 l 0 972 l 201 972 l 201 821 l 160 821 l 160 568 l 288 568 l 288 418 l 160 418 l 160 150 l 294 150 l 294 0 l 0 0 l 0 418 z "},"¥":{"ha":357,"x_min":3,"x_max":357,"o":"m 100 267 l 24 267 l 24 417 l 100 417 l 100 447 l 24 447 l 24 597 l 82 597 l 3 972 l 163 972 l 186 732 l 211 972 l 357 972 l 276 597 l 332 597 l 332 447 l 260 447 l 260 417 l 332 417 l 332 267 l 260 267 l 260 0 l 100 0 l 100 267 z "},"§":{"ha":381,"x_min":0,"x_max":364,"o":"m 0 142 l 160 142 l 160 11 l 204 11 l 204 208 l 49 208 q 36 210 40 208 q 33 211 35 210 q 29 213 31 211 q 26 214 28 213 q 10 228 17 219 q 0 247 3 236 l 0 993 q 15 1027 0 1013 q 49 1042 29 1042 l 315 1042 q 349 1027 335 1042 q 364 993 364 1013 l 364 760 l 204 760 l 204 892 l 160 892 l 160 706 l 315 706 q 349 691 335 706 q 364 657 364 676 l 364 -90 q 349 -124 364 -110 q 315 -139 335 -139 l 49 -139 q 15 -124 29 -139 q 0 -90 0 -110 l 0 142 m 204 544 l 160 544 l 160 358 l 204 358 l 204 544 z "},"©":{"ha":704,"x_min":0,"x_max":683,"o":"m 635 972 q 669 958 654 972 q 683 924 683 943 l 683 49 q 669 15 683 29 q 635 0 654 0 l 631 0 l 49 0 q 15 15 29 0 q 0 49 0 29 l 0 53 l 0 924 q 15 958 0 943 q 49 972 29 972 l 53 972 l 635 972 m 160 150 l 524 150 l 524 822 l 160 822 l 160 150 m 463 600 l 376 600 l 376 371 l 463 371 l 463 221 l 269 221 l 265 221 q 231 235 246 221 q 217 269 217 250 l 217 701 q 231 735 217 721 q 265 750 246 750 l 269 750 l 463 750 l 463 600 z "},"®":{"ha":713,"x_min":0,"x_max":683,"o":"m 49 0 q 15 15 29 0 q 0 49 0 29 l 0 53 l 0 924 q 15 958 0 943 q 49 972 29 972 l 631 972 l 635 972 q 669 958 654 972 q 683 924 683 943 l 683 49 q 669 15 683 29 q 635 0 654 0 l 631 0 l 49 0 m 160 150 l 524 150 l 524 822 l 160 822 l 160 150 m 463 600 l 376 600 l 376 228 l 217 228 l 217 697 l 217 701 q 231 735 217 721 q 265 750 246 750 l 463 750 l 463 600 z "},"¦":{"ha":261,"x_min":42,"x_max":201,"o":"m 42 403 l 201 403 l 201 -125 l 42 -125 l 42 403 m 42 1042 l 201 1042 l 201 514 l 42 514 l 42 1042 z "},"µ":{"ha":382,"x_min":0,"x_max":364,"o":"m 160 150 l 204 150 l 204 833 l 364 833 l 364 53 l 364 49 q 349 15 364 29 q 315 0 335 0 l 311 0 l 160 0 l 160 -215 l 0 -215 l 0 833 l 160 833 l 160 150 z "},"¬":{"ha":544,"x_min":7,"x_max":510,"o":"m 510 597 l 510 265 l 360 265 l 360 447 l 7 447 l 7 597 l 510 597 z "},"¼":{"ha":1142,"x_min":18,"x_max":753,"o":"m 19 987 l 175 1028 l 175 417 l 213 417 l 213 306 l 19 306 l 19 417 l 56 417 l 56 864 l 19 854 l 19 987 m 279 0 l 119 0 l 425 972 l 585 972 l 279 0 m 486 660 l 602 660 l 602 357 l 638 357 l 638 660 l 754 660 l 754 -65 l 638 -65 l 638 245 l 486 245 l 486 660 z "},"½":{"ha":756,"x_min":8,"x_max":724,"o":"m 9 976 l 161 1017 l 161 422 l 198 422 l 198 314 l 9 314 l 9 422 l 45 422 l 45 857 l 9 848 l 9 976 m 282 0 l 122 0 l 428 972 l 588 972 l 282 0 m 457 39 l 602 340 l 604 533 q 591 544 599 544 q 577 533 581 544 l 576 340 l 457 340 l 457 509 q 468 561 457 537 q 497 603 478 585 q 539 632 515 622 q 590 643 563 643 q 642 632 618 643 q 684 603 666 622 q 713 561 702 585 q 724 509 724 537 l 724 340 q 716 311 724 325 l 575 39 l 724 39 l 724 -71 l 457 -71 l 457 39 z "},"¾":{"ha":896,"x_min":-3,"x_max":868,"o":"m 30 700 l 147 700 l 148 896 q 135 907 143 907 q 120 896 125 907 l 120 748 l -3 748 l -3 872 q 8 924 -3 900 q 38 968 19 949 q 81 997 57 986 q 134 1008 106 1008 q 187 997 162 1008 q 230 968 211 986 q 260 924 249 949 q 271 872 271 900 l 271 627 q 253 596 271 607 q 271 565 271 586 l 271 414 q 260 362 271 386 q 230 318 249 337 q 187 289 211 300 q 134 278 162 278 q 81 289 106 278 q 38 318 57 300 q 8 362 19 337 q -3 414 -3 386 l -3 542 l 119 542 l 119 390 q 133 379 124 379 q 147 390 142 379 l 147 588 l 30 588 l 30 700 m 326 0 l 167 0 l 472 972 l 632 972 l 326 0 m 579 763 l 705 763 l 705 444 l 743 444 l 743 763 l 868 763 l 868 0 l 743 0 l 743 327 l 579 327 l 579 763 z "},"º":{"ha":335,"x_min":0,"x_max":311,"o":"m 270 971 q 299 960 286 971 q 311 934 311 949 l 311 376 l 311 373 q 299 347 311 358 q 270 336 286 336 l 45 336 l 42 336 q 12 347 25 336 q 0 373 0 358 l 0 376 l 0 934 q 12 960 0 949 q 42 971 25 971 l 266 971 l 270 971 m 137 450 l 175 450 l 175 857 l 137 857 l 137 450 z "},"¹":{"ha":243,"x_min":1,"x_max":221,"o":"m 2 938 l 179 972 l 179 469 l 222 469 l 222 378 l 2 378 l 2 469 l 44 469 l 44 837 l 2 830 l 2 938 z "},"²":{"ha":335,"x_min":0,"x_max":299,"o":"m 0 491 l 163 731 l 164 884 q 150 893 160 893 q 134 884 139 893 l 133 731 l 0 731 l 0 866 q 12 907 0 888 q 44 940 24 926 q 92 964 65 955 q 149 972 119 972 q 207 964 180 972 q 254 940 234 955 q 287 907 275 926 q 299 866 299 888 l 299 731 q 291 707 299 718 l 132 491 l 299 491 l 299 403 l 0 403 l 0 491 z "},"³":{"ha":342,"x_min":0,"x_max":311,"o":"m 37 745 l 171 745 l 172 889 q 157 897 167 897 q 141 889 146 897 l 141 780 l 0 780 l 0 871 q 13 910 0 892 q 47 942 25 928 q 96 964 68 956 q 156 972 124 972 q 216 964 188 972 q 266 942 245 956 q 300 910 287 928 q 312 871 312 892 l 312 691 q 292 667 312 675 q 312 644 312 660 l 312 533 q 300 494 312 512 q 266 462 287 476 q 216 440 245 448 q 156 432 188 432 q 96 440 124 432 q 47 462 68 448 q 13 494 25 476 q 0 533 0 512 l 0 627 l 140 627 l 140 515 q 155 507 144 507 q 171 515 166 507 l 171 661 l 37 661 l 37 745 z "},"¤":{"ha":400,"x_min":0,"x_max":364,"o":"m 315 713 q 349 698 335 713 q 364 664 364 683 l 364 261 l 364 257 q 349 223 364 238 q 315 208 335 208 l 53 208 l 49 208 q 15 223 29 208 q 0 257 0 238 l 0 261 l 0 664 q 15 698 0 683 q 49 713 29 713 l 311 713 l 315 713 m 160 358 l 204 358 l 204 563 l 160 563 l 160 358 z "},"˘":{"ha":174,"x_min":0,"x_max":147,"o":"m 64 933 l 82 933 l 82 994 l 147 994 l 147 896 l 147 893 q 141 878 147 885 q 128 872 135 872 l 19 872 q 6 878 11 872 q 0 893 0 885 l 0 994 l 64 994 l 64 933 z "},"±":{"ha":335,"x_min":7,"x_max":315,"o":"m 236 676 l 236 597 l 315 597 l 315 447 l 236 447 l 236 368 l 86 368 l 86 447 l 7 447 l 7 597 l 86 597 l 86 676 l 236 676 m 315 169 l 7 169 l 7 319 l 315 319 l 315 169 z "},"·":{"ha":183,"x_min":6,"x_max":151,"o":"m 6 536 l 151 536 l 151 386 l 6 386 l 6 536 z "},"÷":{"ha":183,"x_min":-67,"x_max":242,"o":"m 6 150 l 151 150 l 151 0 l 6 0 l 6 150 m 6 779 l 151 779 l 151 629 l 6 629 l 6 779 m 242 331 l -67 331 l -67 481 l 242 481 l 242 331 z "},"Ą":{"ha":425,"x_min":0,"x_max":424,"o":"m 424 -206 l 318 -206 q 305 -199 311 -206 q 299 -185 299 -193 l 299 -86 q 305 -73 299 -79 q 318 -67 311 -67 l 338 -67 l 338 15 l 401 15 l 401 -67 l 424 -67 l 424 -126 l 363 -126 l 363 -146 l 424 -146 l 424 -206 m 254 72 l 169 72 l 160 0 l 0 0 l 131 972 l 293 972 l 424 0 l 264 0 l 254 72 m 211 592 l 189 222 l 233 222 l 211 592 z "},"Ă":{"ha":425,"x_min":0,"x_max":424,"o":"m 254 72 l 169 72 l 160 0 l 0 0 l 131 972 l 293 972 l 424 0 l 264 0 l 254 72 m 211 592 l 189 222 l 233 222 l 211 592 m 203 1072 l 221 1072 l 221 1133 l 286 1133 l 286 1035 l 286 1032 q 280 1017 286 1024 q 267 1011 274 1011 l 158 1011 q 144 1017 150 1011 q 139 1032 139 1024 l 139 1133 l 203 1133 l 203 1072 z "},"ă":{"ha":383,"x_min":0,"x_max":364,"o":"m 315 833 q 349 819 335 833 q 364 785 364 804 l 364 781 l 364 0 l 49 0 q 15 15 29 0 q 0 49 0 29 l 0 549 q 15 583 0 568 q 49 597 29 597 l 204 597 l 204 683 l 0 683 l 0 833 l 315 833 m 160 150 l 204 150 l 204 447 l 160 447 l 160 150 m 182 933 l 200 933 l 200 994 l 265 994 l 265 896 l 265 893 q 259 878 265 885 q 246 872 253 872 l 138 872 q 124 878 129 872 q 118 893 118 885 l 118 994 l 182 994 l 182 933 z "},"Ŕ":{"ha":381,"x_min":0,"x_max":364,"o":"m 204 417 l 160 417 l 160 0 l 0 0 l 0 972 l 315 972 q 349 958 335 972 q 364 924 364 943 l 364 469 l 364 465 q 340 424 364 438 q 364 382 364 410 l 364 378 l 364 0 l 204 0 l 204 417 m 160 567 l 204 567 l 204 822 l 160 822 l 160 567 m 281 417 l 281 415 l 282 417 l 281 417 m 71 1032 l 189 1071 l 308 1071 l 308 1006 l 72 1006 l 71 1032 z "},"ŕ":{"ha":388,"x_min":0,"x_max":364,"o":"m 204 683 l 160 683 l 160 0 l 0 0 l 0 833 l 311 833 l 315 833 q 349 819 335 833 q 364 785 364 804 l 364 781 l 364 514 l 204 514 l 204 683 m 75 893 l 193 932 l 313 932 l 313 867 l 76 867 l 75 893 z "},"Ľ":{"ha":315,"x_min":0,"x_max":294,"o":"m 0 972 l 160 972 l 160 150 l 294 150 l 294 0 l 0 0 l 0 972 m 136 1146 l 282 1146 l 282 996 l 281 996 l 282 946 l 194 897 l 196 996 l 136 996 l 136 1146 z "},"Ś":{"ha":382,"x_min":0,"x_max":364,"o":"m 0 322 l 160 322 l 160 150 l 204 150 l 204 417 l 49 417 q 15 431 29 417 q 0 465 0 446 l 0 924 q 15 958 0 943 q 49 972 29 972 l 53 972 l 311 972 l 315 972 q 349 958 335 972 q 364 924 364 943 l 364 649 l 204 649 l 204 822 l 160 822 l 160 567 l 311 567 l 315 567 q 349 552 335 567 q 364 518 364 538 l 364 53 l 364 49 q 349 15 364 29 q 315 0 335 0 l 53 0 l 49 0 q 15 15 29 0 q 0 49 0 29 l 0 322 m 72 1032 l 190 1071 l 310 1071 l 310 1006 l 74 1006 l 72 1032 z "},"Ć":{"ha":386,"x_min":0,"x_max":364,"o":"m 0 924 q 15 958 0 943 q 49 972 29 972 l 53 972 l 315 972 q 349 958 335 972 q 364 924 364 943 l 364 919 l 364 553 l 204 553 l 204 822 l 160 822 l 160 150 l 204 150 l 204 204 l 364 204 l 364 49 q 349 15 364 29 q 315 0 335 0 l 49 0 q 15 15 29 0 q 0 49 0 29 l 0 924 m 74 1032 l 192 1071 l 311 1071 l 311 1006 l 75 1006 l 74 1032 z "},"Ĺ":{"ha":315,"x_min":0,"x_max":294,"o":"m 0 972 l 160 972 l 160 150 l 294 150 l 294 0 l 0 0 l 0 972 m 39 1032 l 157 1071 l 276 1071 l 276 1006 l 40 1006 l 39 1032 z "},"ĺ":{"ha":190,"x_min":-22,"x_max":215,"o":"m 167 0 l 7 0 l 7 972 l 167 972 l 167 0 m -22 893 l 96 932 l 215 932 l 215 867 l -21 867 l -22 893 z "},"ć":{"ha":388,"x_min":0,"x_max":364,"o":"m 160 150 l 204 150 l 204 274 l 364 274 l 364 49 q 349 15 364 29 q 315 0 335 0 l 49 0 q 15 15 29 0 q 0 49 0 29 l 0 785 q 15 819 0 804 q 49 833 29 833 l 315 833 q 349 819 335 833 q 364 785 364 804 l 364 378 l 204 378 l 204 683 l 160 683 l 160 150 m 75 893 l 193 932 l 313 932 l 313 867 l 76 867 l 75 893 z "},"č":{"ha":388,"x_min":0,"x_max":364,"o":"m 160 150 l 204 150 l 204 274 l 364 274 l 364 49 q 349 15 364 29 q 315 0 335 0 l 49 0 q 15 15 29 0 q 0 49 0 29 l 0 785 q 15 819 0 804 q 49 833 29 833 l 315 833 q 349 819 335 833 q 364 785 364 804 l 364 378 l 204 378 l 204 683 l 160 683 l 160 150 m 194 946 l 235 1011 l 363 1011 l 258 860 l 129 860 l 25 1011 l 153 1011 l 194 946 z "},"Č":{"ha":386,"x_min":0,"x_max":364,"o":"m 0 924 q 15 958 0 943 q 49 972 29 972 l 53 972 l 315 972 q 349 958 335 972 q 364 924 364 943 l 364 919 l 364 553 l 204 553 l 204 822 l 160 822 l 160 150 l 204 150 l 204 204 l 364 204 l 364 49 q 349 15 364 29 q 315 0 335 0 l 49 0 q 15 15 29 0 q 0 49 0 29 l 0 924 m 193 1085 l 233 1150 l 361 1150 l 257 999 l 128 999 l 24 1150 l 151 1150 l 193 1085 z "},"Ș":{"ha":382,"x_min":0,"x_max":364,"o":"m 0 322 l 160 322 l 160 150 l 204 150 l 204 417 l 49 417 q 15 431 29 417 q 0 465 0 446 l 0 924 q 15 958 0 943 q 49 972 29 972 l 53 972 l 311 972 l 315 972 q 349 958 335 972 q 364 924 364 943 l 364 649 l 204 649 l 204 822 l 160 822 l 160 567 l 311 567 l 315 567 q 349 552 335 567 q 364 518 364 538 l 364 53 l 364 49 q 349 15 364 29 q 315 0 335 0 l 53 0 l 49 0 q 15 15 29 0 q 0 49 0 29 l 0 322 m 122 -35 l 268 -35 l 268 -185 l 267 -185 l 268 -235 l 181 -283 l 182 -185 l 122 -185 l 122 -35 z "},"Ť":{"ha":421,"x_min":0,"x_max":400,"o":"m 0 972 l 400 972 l 400 822 l 285 822 l 285 0 l 125 0 l 125 822 l 0 822 l 0 972 m 211 1085 l 251 1150 l 379 1150 l 275 999 l 146 999 l 42 1150 l 169 1150 l 211 1085 z "},"Ę":{"ha":321,"x_min":0,"x_max":294,"o":"m 0 972 l 294 972 l 294 822 l 160 822 l 160 567 l 294 567 l 294 417 l 160 417 l 160 150 l 294 150 l 294 0 l 0 0 l 0 972 m 104 -64 l 124 -64 l 124 18 l 188 18 l 188 -64 l 210 -64 l 210 -124 l 149 -124 l 149 -143 l 210 -143 l 210 -203 l 107 -203 l 104 -203 q 91 -197 97 -203 q 85 -182 85 -190 l 85 -83 q 91 -70 85 -76 q 104 -64 97 -64 z "},"ę":{"ha":383,"x_min":0,"x_max":364,"o":"m 239 -206 l 133 -206 q 120 -199 126 -206 q 114 -185 114 -193 l 114 -86 q 120 -73 114 -79 q 133 -67 126 -67 l 153 -67 l 153 15 l 217 15 l 217 -67 l 239 -67 l 239 -126 l 178 -126 l 178 -146 l 239 -146 l 239 -206 m 160 378 l 160 150 l 204 150 l 204 274 l 364 274 l 364 49 q 349 15 364 29 q 315 0 335 0 l 49 0 q 15 15 29 0 q 0 49 0 29 l 0 785 q 15 819 0 804 q 49 833 29 833 l 315 833 q 349 819 335 833 q 364 785 364 804 l 364 378 l 160 378 m 160 526 l 204 526 l 204 683 l 160 683 l 160 526 z "},"Ź":{"ha":315,"x_min":0,"x_max":313,"o":"m 0 972 l 313 972 l 183 150 l 294 150 l 294 0 l 0 0 l 129 822 l 0 822 l 0 972 m 39 1032 l 157 1071 l 276 1071 l 276 1006 l 40 1006 l 39 1032 z "},"Ě":{"ha":321,"x_min":-8,"x_max":329,"o":"m 0 972 l 294 972 l 294 822 l 160 822 l 160 567 l 294 567 l 294 417 l 160 417 l 160 150 l 294 150 l 294 0 l 0 0 l 0 972 m 161 1085 l 201 1150 l 329 1150 l 225 999 l 96 999 l -8 1150 l 119 1150 l 161 1085 z "},"ě":{"ha":383,"x_min":0,"x_max":364,"o":"m 160 378 l 160 150 l 204 150 l 204 274 l 364 274 l 364 49 q 349 15 364 29 q 315 0 335 0 l 49 0 q 15 15 29 0 q 0 49 0 29 l 0 785 q 15 819 0 804 q 49 833 29 833 l 315 833 q 349 819 335 833 q 364 785 364 804 l 364 378 l 160 378 m 160 526 l 204 526 l 204 683 l 160 683 l 160 526 m 192 946 l 232 1011 l 360 1011 l 256 860 l 126 860 l 22 1011 l 150 1011 l 192 946 z "},"Ď":{"ha":382,"x_min":0,"x_max":364,"o":"m 0 972 l 311 972 l 315 972 q 349 958 335 972 q 364 924 364 943 l 364 919 l 364 53 l 364 49 q 349 15 364 29 q 315 0 335 0 l 0 0 l 0 972 m 160 150 l 204 150 l 204 822 l 160 822 l 160 150 m 192 1085 l 232 1150 l 360 1150 l 256 999 l 126 999 l 22 1150 l 150 1150 l 192 1085 z "},"ď":{"ha":568,"x_min":0,"x_max":539,"o":"m 49 833 l 204 833 l 204 972 l 364 972 l 364 0 l 49 0 q 15 15 29 0 q 0 49 0 29 l 0 785 q 15 819 0 804 q 49 833 29 833 m 160 150 l 204 150 l 204 683 l 160 683 l 160 150 m 393 983 l 539 983 l 539 833 l 538 833 l 539 783 l 451 735 l 453 833 l 393 833 l 393 983 z "},"Ż":{"ha":315,"x_min":0,"x_max":313,"o":"m 0 972 l 313 972 l 183 150 l 294 150 l 294 0 l 0 0 l 129 822 l 0 822 l 0 972 m 85 1150 l 231 1150 l 231 1000 l 85 1000 l 85 1150 z "},"­":{"ha":361,"x_min":57,"x_max":308,"o":"m 57 518 l 308 518 l 308 383 l 57 383 l 57 518 z "},"ą":{"ha":383,"x_min":0,"x_max":364,"o":"m 364 -206 l 258 -206 q 245 -199 251 -206 q 239 -185 239 -193 l 239 -86 q 245 -73 239 -79 q 258 -67 251 -67 l 278 -67 l 278 15 l 342 15 l 342 -67 l 364 -67 l 364 -126 l 303 -126 l 303 -146 l 364 -146 l 364 -206 m 315 833 q 349 819 335 833 q 364 785 364 804 l 364 781 l 364 0 l 49 0 q 15 15 29 0 q 0 49 0 29 l 0 549 q 15 583 0 568 q 49 597 29 597 l 204 597 l 204 683 l 0 683 l 0 833 l 315 833 m 160 150 l 204 150 l 204 447 l 160 447 l 160 150 z "},"Đ":{"ha":382,"x_min":0,"x_max":364,"o":"m 93 376 l 190 376 l 190 568 l 93 568 l 93 376 m 0 972 l 311 972 l 315 972 q 349 958 335 972 q 364 924 364 943 l 364 919 l 364 53 l 364 49 q 349 15 364 29 q 315 0 335 0 l 0 0 l 0 972 m 160 150 l 204 150 l 204 822 l 160 822 l 160 150 z "},"đ":{"ha":388,"x_min":0,"x_max":421,"o":"m 421 863 l 113 863 l 113 1013 l 421 1013 l 421 863 m 49 833 l 204 833 l 204 972 l 364 972 l 364 0 l 49 0 q 15 15 29 0 q 0 49 0 29 l 0 785 q 15 819 0 804 q 49 833 29 833 m 160 150 l 204 150 l 204 683 l 160 683 l 160 150 z "},"ń":{"ha":383,"x_min":0,"x_max":364,"o":"m 204 683 l 160 683 l 160 0 l 0 0 l 0 833 l 311 833 l 315 833 q 349 819 335 833 q 364 785 364 804 l 364 781 l 364 0 l 204 0 l 204 683 m 72 893 l 190 932 l 310 932 l 310 867 l 74 867 l 72 893 z "},"Ń":{"ha":383,"x_min":0,"x_max":368,"o":"m 0 972 l 103 972 l 208 485 l 208 972 l 368 972 l 368 0 l 239 0 l 160 365 l 160 0 l 0 0 l 0 972 m 72 1032 l 190 1071 l 310 1071 l 310 1006 l 74 1006 l 72 1032 z "},"Ň":{"ha":383,"x_min":0,"x_max":368,"o":"m 0 972 l 103 972 l 208 485 l 208 972 l 368 972 l 368 0 l 239 0 l 160 365 l 160 0 l 0 0 l 0 972 m 192 1085 l 232 1150 l 360 1150 l 256 999 l 126 999 l 22 1150 l 150 1150 l 192 1085 z "},"ň":{"ha":383,"x_min":0,"x_max":364,"o":"m 204 683 l 160 683 l 160 0 l 0 0 l 0 833 l 311 833 l 315 833 q 349 819 335 833 q 364 785 364 804 l 364 781 l 364 0 l 204 0 l 204 683 m 192 946 l 232 1011 l 360 1011 l 256 860 l 126 860 l 22 1011 l 150 1011 l 192 946 z "},"ő":{"ha":386,"x_min":0,"x_max":375,"o":"m 315 833 q 349 819 335 833 q 364 785 364 804 l 364 53 l 364 49 q 349 15 364 29 q 315 0 335 0 l 53 0 l 49 0 q 15 15 29 0 q 0 49 0 29 l 0 53 l 0 785 q 15 819 0 804 q 49 833 29 833 l 311 833 l 315 833 m 160 150 l 204 150 l 204 683 l 160 683 l 160 150 m 153 871 l 236 956 l 240 960 l 346 1014 l 375 956 l 165 849 l 153 871 m 14 871 l 101 960 l 207 1014 l 236 956 l 26 849 l 14 871 z "},"Ő":{"ha":379,"x_min":0,"x_max":372,"o":"m 315 972 q 349 958 335 972 q 364 924 364 943 l 364 53 l 364 49 q 349 15 364 29 q 315 0 335 0 l 53 0 l 49 0 q 15 15 29 0 q 0 49 0 29 l 0 53 l 0 924 q 15 958 0 943 q 49 972 29 972 l 311 972 l 315 972 m 160 150 l 204 150 l 204 822 l 160 822 l 160 150 m 150 1010 l 233 1094 l 238 1099 l 343 1153 l 372 1094 l 163 988 l 150 1010 m 11 1010 l 99 1099 l 204 1153 l 233 1094 l 24 988 l 11 1010 z "},"Ů":{"ha":382,"x_min":0,"x_max":364,"o":"m 160 150 l 204 150 l 204 972 l 364 972 l 364 49 q 349 15 364 29 q 315 0 335 0 l 311 0 l 49 0 q 15 15 29 0 q 0 49 0 29 l 0 972 l 160 972 l 160 150 m 244 1153 q 258 1147 251 1153 q 264 1133 264 1140 l 264 1032 q 258 1017 264 1024 q 244 1011 251 1011 l 139 1011 l 136 1011 q 122 1017 128 1011 q 117 1032 117 1024 l 117 1035 l 117 1133 q 122 1147 117 1140 q 136 1153 128 1153 l 139 1153 l 242 1153 l 244 1153 m 181 1072 l 199 1072 l 199 1092 l 181 1092 l 181 1072 z "},"ů":{"ha":382,"x_min":0,"x_max":364,"o":"m 160 150 l 204 150 l 204 833 l 364 833 l 364 49 q 349 15 364 29 q 315 0 335 0 l 311 0 l 49 0 q 15 15 29 0 q 0 49 0 29 l 0 833 l 160 833 l 160 150 m 244 1014 q 258 1008 251 1014 q 264 994 264 1001 l 264 893 q 258 878 264 885 q 244 872 251 872 l 139 872 l 136 872 q 122 878 128 872 q 117 893 117 885 l 117 896 l 117 994 q 122 1008 117 1001 q 136 1014 128 1014 l 139 1014 l 242 1014 l 244 1014 m 181 933 l 199 933 l 199 953 l 181 953 l 181 933 z "},"ř":{"ha":388,"x_min":0,"x_max":364,"o":"m 204 683 l 160 683 l 160 0 l 0 0 l 0 833 l 311 833 l 315 833 q 349 819 335 833 q 364 785 364 804 l 364 781 l 364 514 l 204 514 l 204 683 m 194 946 l 235 1011 l 363 1011 l 258 860 l 129 860 l 25 1011 l 153 1011 l 194 946 z "},"Ř":{"ha":381,"x_min":0,"x_max":364,"o":"m 204 417 l 160 417 l 160 0 l 0 0 l 0 972 l 315 972 q 349 958 335 972 q 364 924 364 943 l 364 469 l 364 465 q 340 424 364 438 q 364 382 364 410 l 364 378 l 364 0 l 204 0 l 204 417 m 160 567 l 204 567 l 204 822 l 160 822 l 160 567 m 281 417 l 281 415 l 282 417 l 281 417 m 190 1085 l 231 1150 l 358 1150 l 254 999 l 125 999 l 21 1150 l 149 1150 l 190 1085 z "},"ś":{"ha":392,"x_min":0,"x_max":364,"o":"m 0 281 l 160 281 l 160 150 l 204 150 l 204 347 l 49 347 q 15 362 29 347 q 0 396 0 376 l 0 785 q 15 819 0 804 q 49 833 29 833 l 53 833 l 311 833 l 315 833 q 349 819 335 833 q 364 785 364 804 l 364 551 l 204 551 l 204 683 l 160 683 l 160 497 l 311 497 l 315 497 q 349 483 335 497 q 364 449 364 468 l 364 53 l 364 49 q 349 15 364 29 q 315 0 335 0 l 53 0 l 49 0 q 15 15 29 0 q 0 49 0 29 l 0 281 m 76 893 l 194 932 l 314 932 l 314 867 l 78 867 l 76 893 z "},"ľ":{"ha":371,"x_min":7,"x_max":342,"o":"m 167 0 l 7 0 l 7 972 l 167 972 l 167 0 m 196 983 l 342 983 l 342 833 l 340 833 l 342 783 l 254 735 l 256 833 l 196 833 l 196 983 z "},"ș":{"ha":392,"x_min":0,"x_max":364,"o":"m 0 281 l 160 281 l 160 150 l 204 150 l 204 347 l 49 347 q 15 362 29 347 q 0 396 0 376 l 0 785 q 15 819 0 804 q 49 833 29 833 l 53 833 l 311 833 l 315 833 q 349 819 335 833 q 364 785 364 804 l 364 551 l 204 551 l 204 683 l 160 683 l 160 497 l 311 497 l 315 497 q 349 483 335 497 q 364 449 364 468 l 364 53 l 364 49 q 349 15 364 29 q 315 0 335 0 l 53 0 l 49 0 q 15 15 29 0 q 0 49 0 29 l 0 281 m 122 -35 l 268 -35 l 268 -185 l 267 -185 l 268 -235 l 181 -283 l 182 -185 l 122 -185 l 122 -35 z "},"ť":{"ha":564,"x_min":0,"x_max":535,"o":"m 364 683 l 160 683 l 160 150 l 204 150 l 204 354 l 364 354 l 364 53 l 364 49 q 349 15 364 29 q 315 0 335 0 l 311 0 l 49 0 q 15 15 29 0 q 0 49 0 29 l 0 972 l 160 972 l 160 833 l 364 833 l 364 683 m 389 983 l 535 983 l 535 833 l 533 833 l 535 783 l 447 735 l 449 833 l 389 833 l 389 983 z "},"Ţ":{"ha":421,"x_min":0,"x_max":400,"o":"m 0 972 l 400 972 l 400 822 l 285 822 l 285 0 l 125 0 l 125 822 l 0 822 l 0 972 m 122 -35 l 268 -35 l 268 -185 l 267 -185 l 268 -235 l 181 -283 l 182 -185 l 122 -185 l 122 -35 z "},"ţ":{"ha":383,"x_min":0,"x_max":364,"o":"m 364 683 l 160 683 l 160 150 l 204 150 l 204 354 l 364 354 l 364 53 l 364 49 q 349 15 364 29 q 315 0 335 0 l 311 0 l 49 0 q 15 15 29 0 q 0 49 0 29 l 0 972 l 160 972 l 160 833 l 364 833 l 364 683 m 122 -35 l 268 -35 l 268 -185 l 267 -185 l 268 -235 l 181 -283 l 182 -185 l 122 -185 l 122 -35 z "},"ű":{"ha":382,"x_min":0,"x_max":374,"o":"m 160 150 l 204 150 l 204 833 l 364 833 l 364 49 q 349 15 364 29 q 315 0 335 0 l 311 0 l 49 0 q 15 15 29 0 q 0 49 0 29 l 0 833 l 160 833 l 160 150 m 151 871 l 235 956 l 239 960 l 344 1014 l 374 956 l 164 849 l 151 871 m 13 871 l 100 960 l 206 1014 l 235 956 l 25 849 l 13 871 z "},"Ű":{"ha":382,"x_min":0,"x_max":374,"o":"m 160 150 l 204 150 l 204 972 l 364 972 l 364 49 q 349 15 364 29 q 315 0 335 0 l 311 0 l 49 0 q 15 15 29 0 q 0 49 0 29 l 0 972 l 160 972 l 160 150 m 151 1010 l 235 1094 l 239 1099 l 344 1153 l 374 1094 l 164 988 l 151 1010 m 13 1010 l 100 1099 l 206 1153 l 235 1094 l 25 988 l 13 1010 z "},"ź":{"ha":311,"x_min":0,"x_max":313,"o":"m 0 833 l 313 833 l 188 150 l 294 150 l 294 0 l 0 0 l 125 683 l 0 683 l 0 833 m 36 893 l 154 932 l 274 932 l 274 867 l 38 867 l 36 893 z "},"ż":{"ha":311,"x_min":0,"x_max":313,"o":"m 0 833 l 313 833 l 188 150 l 294 150 l 294 0 l 0 0 l 125 683 l 0 683 l 0 833 m 82 1011 l 228 1011 l 228 861 l 82 861 l 82 1011 z "},"×":{"ha":368,"x_min":-1,"x_max":324,"o":"m 106 685 l 161 629 l 217 685 l 324 578 l 268 522 l 324 467 l 217 360 l 161 415 l 106 360 l -1 467 l 54 522 l -1 578 l 106 685 z "}}}
